<svg width="377" height="112" viewBox="0 0 377 112" fill="none" xmlns="http://www.w3.org/2000/svg">
<mask id="mask0_58_414" style="mask-type:luminance" maskUnits="userSpaceOnUse" x="44" y="0" width="109" height="109">
<path d="M44.3438 0.510254H152.344V108.515H44.3438V0.510254Z" fill="white"/>
</mask>
<g mask="url(#mask0_58_414)">
<mask id="mask1_58_414" style="mask-type:luminance" maskUnits="userSpaceOnUse" x="44" y="0" width="109" height="109">
<path d="M98.3438 0.510254C68.5208 0.510254 44.3438 24.6873 44.3438 54.5103C44.3438 84.3384 68.5208 108.515 98.3438 108.515C128.167 108.515 152.344 84.3384 152.344 54.5103C152.344 24.6873 128.167 0.510254 98.3438 0.510254Z" fill="white"/>
</mask>
<g mask="url(#mask1_58_414)">
<path d="M44.3438 0.510254H152.344V108.515H44.3438V0.510254Z" fill="#050A30"/>
</g>
</g>
<mask id="mask2_58_414" style="mask-type:luminance" maskUnits="userSpaceOnUse" x="38" y="3" width="109" height="109">
<path d="M38.3699 3.75537H146.375V111.755H38.3699V3.75537Z" fill="white"/>
</mask>
<g mask="url(#mask2_58_414)">
<mask id="mask3_58_414" style="mask-type:luminance" maskUnits="userSpaceOnUse" x="38" y="3" width="109" height="109">
<path d="M92.3699 3.75537C62.547 3.75537 38.3699 27.9325 38.3699 57.7554C38.3699 87.5783 62.547 111.755 92.3699 111.755C122.198 111.755 146.375 87.5783 146.375 57.7554C146.375 27.9325 122.198 3.75537 92.3699 3.75537Z" fill="white"/>
</mask>
<g mask="url(#mask3_58_414)">
<path d="M38.3699 3.75537H146.375V111.755H38.3699V3.75537Z" fill="white"/>
</g>
</g>
<mask id="mask4_58_414" style="mask-type:luminance" maskUnits="userSpaceOnUse" x="65" y="16" width="66" height="78">
<path d="M65.6667 16.0156H130.427V93.0156H65.6667V16.0156Z" fill="white"/>
</mask>
<g mask="url(#mask4_58_414)">
<path d="M130.912 57.3489L130.922 62.1353C130.922 63.9114 129.464 65.3645 127.693 65.3645L107.531 65.3749C105.761 65.3749 104.307 66.8176 104.307 68.5989L104.313 89.5989C104.313 91.3697 102.86 92.8176 101.089 92.8176H96.3022C94.5262 92.8176 91.6148 92.828 89.8439 92.828H85.0575C83.2866 92.828 81.8283 91.3697 81.8283 89.5989L81.8231 68.6041C81.8231 66.828 80.3752 65.3749 78.5939 65.3749L66.4116 65.3801V63.3333H72.271V58.3124H68.646V52.4583H74.5002V47.0208H70.7397V42.8958L78.5939 42.8905C80.3647 42.8905 81.8231 41.4426 81.8231 39.6666L81.8127 19.5103C81.8127 17.7291 83.2606 16.2812 85.0418 16.2812H89.8283C91.5991 16.2812 94.5002 16.2812 96.2866 16.2708H101.068C102.844 16.2708 104.297 17.7291 104.297 19.4999V39.6614C104.297 41.4322 105.75 42.8905 107.526 42.8905L127.682 42.8801C129.464 42.8801 130.912 44.3333 130.912 46.1093V50.8905C130.912 52.6666 130.912 55.578 130.912 57.3489Z" fill="#242A56"/>
</g>
<path d="M60.9792 52.4585H66.4115V57.896H60.9792V52.4585Z" fill="#242A56"/>
<path d="M60.9792 43.4688H66.4115V48.901H60.9792V43.4688Z" fill="#242A56"/>
<path d="M57.5051 64.9062H62.9426V70.3385H57.5051V64.9062Z" fill="#242A56"/>
<path d="M52.0676 56.7397H57.5051V62.1772H52.0676V56.7397Z" fill="#242A56"/>
<path d="M51.1511 47.021H56.5834V52.4585H51.1511V47.021Z" fill="#242A56"/>
<path d="M46.6301 38.0312H52.0676V43.4688H46.6301V38.0312Z" fill="#242A56"/>
<path d="M37.2239 59.4688H42.6614V64.9063H37.2239V59.4688Z" fill="#242A56"/>
<path d="M34.5051 47.021H39.9426V52.4585H34.5051V47.021Z" fill="#242A56"/>
<path d="M21.75 38.8647H27.1875V44.3022H21.75V38.8647Z" fill="#242A56"/>
<path d="M16.3125 56.2241H21.75V61.6616H16.3125V56.2241Z" fill="#242A56"/>
<mask id="mask5_58_414" style="mask-type:luminance" maskUnits="userSpaceOnUse" x="0" y="43" width="9" height="8">
<path d="M0.427002 43.3335H8.33325V50.0002H0.427002V43.3335Z" fill="white"/>
</mask>
<g mask="url(#mask5_58_414)">
<path d="M1.58838 44.3022H7.02588V49.7397H1.58838V44.3022Z" fill="#242A56"/>
</g>
<mask id="mask6_58_414" style="mask-type:luminance" maskUnits="userSpaceOnUse" x="0" y="62" width="7" height="7">
<path d="M0.427002 62H6.99992V68.6667H0.427002V62Z" fill="white"/>
</mask>
<g mask="url(#mask6_58_414)">
<path d="M0.416504 62.177H5.854V67.6145H0.416504V62.177Z" fill="#242A56"/>
</g>
<mask id="mask7_58_414" style="mask-type:luminance" maskUnits="userSpaceOnUse" x="99" y="68" width="6" height="30">
<path d="M99 68.6667H104.333V98.0001H99V68.6667Z" fill="white"/>
</mask>
<g mask="url(#mask7_58_414)">
<path d="M99.6405 97.8855V85.8647L103.859 80.2032C103.885 80.1667 103.901 80.1251 103.901 80.0782V69.2761C103.901 69.1615 103.812 69.073 103.698 69.073C103.588 69.073 103.5 69.1615 103.5 69.2761V80.0157L99.276 85.6772C99.2499 85.7084 99.2395 85.7553 99.2395 85.797V97.8855C99.2395 97.9949 99.328 98.0886 99.4374 98.0886C99.552 98.0886 99.6405 97.9949 99.6405 97.8855Z" fill="white"/>
</g>
<mask id="mask8_58_414" style="mask-type:luminance" maskUnits="userSpaceOnUse" x="101" y="74" width="8" height="24">
<path d="M101.667 74H108.333V98H101.667V74Z" fill="white"/>
</mask>
<g mask="url(#mask8_58_414)">
<path d="M102.958 97.8853V91.9374L107.177 86.2708C107.203 86.2395 107.219 86.1978 107.219 86.151V75.3489C107.219 75.2343 107.125 75.1458 107.016 75.1458C106.906 75.1458 106.813 75.2343 106.813 75.3489V86.0833L102.594 91.7499C102.568 91.7812 102.557 91.8228 102.557 91.8697V97.8853C102.557 97.9947 102.646 98.0885 102.755 98.0885C102.87 98.0885 102.958 97.9947 102.958 97.8853Z" fill="white"/>
</g>
<mask id="mask9_58_414" style="mask-type:luminance" maskUnits="userSpaceOnUse" x="96" y="70" width="6" height="28">
<path d="M96.3333 70H101.667V98H96.3333V70Z" fill="white"/>
</mask>
<g mask="url(#mask9_58_414)">
<path d="M97.8281 97.8854V81.0313L100.755 78.1042C100.792 78.0677 100.813 78.0156 100.813 77.9635V70.3385C100.813 70.2292 100.724 70.1406 100.609 70.1406C100.5 70.1406 100.411 70.2292 100.411 70.3385V77.8802L97.4792 80.8073C97.4427 80.8437 97.4219 80.8958 97.4219 80.9479V97.8854C97.4219 97.9948 97.5104 98.0885 97.625 98.0885C97.7344 98.0885 97.8281 97.9948 97.8281 97.8854Z" fill="white"/>
</g>
<mask id="mask10_58_414" style="mask-type:luminance" maskUnits="userSpaceOnUse" x="95" y="76" width="2" height="22">
<path d="M95 76.6667H96.3333V98.0001H95V76.6667Z" fill="white"/>
</mask>
<g mask="url(#mask10_58_414)">
<path d="M96.1354 97.8854V77.5104C96.1354 77.401 96.0469 77.3125 95.9375 77.3125C95.8229 77.3125 95.7344 77.401 95.7344 77.5104V97.8854C95.7344 97.9948 95.8229 98.0885 95.9375 98.0885C96.0469 98.0885 96.1354 97.9948 96.1354 97.8854Z" fill="white"/>
</g>
<mask id="mask11_58_414" style="mask-type:luminance" maskUnits="userSpaceOnUse" x="105" y="78" width="6" height="20">
<path d="M105.667 78H110.901V98H105.667V78Z" fill="white"/>
</mask>
<g mask="url(#mask11_58_414)">
<path d="M106.938 97.8854V90.7135L109.708 86.7292C109.735 86.6979 109.745 86.6563 109.745 86.6146V78.2969C109.745 78.1823 109.656 78.0938 109.542 78.0938C109.432 78.0938 109.344 78.1823 109.344 78.2969V86.5521L106.573 90.5365C106.547 90.5729 106.537 90.6094 106.537 90.651V97.8854C106.537 97.9948 106.625 98.0885 106.735 98.0885C106.849 98.0885 106.938 97.9948 106.938 97.8854Z" fill="white"/>
</g>
<mask id="mask12_58_414" style="mask-type:luminance" maskUnits="userSpaceOnUse" x="104" y="92" width="2" height="6">
<path d="M104.333 92.6667H105.667V98.0001H104.333V92.6667Z" fill="white"/>
</mask>
<g mask="url(#mask12_58_414)">
<path d="M104.802 97.8854V94.0417C104.802 93.9323 104.708 93.8438 104.599 93.8438C104.49 93.8438 104.396 93.9323 104.396 94.0417V97.8854C104.396 97.9948 104.49 98.0885 104.599 98.0885C104.708 98.0885 104.802 97.9948 104.802 97.8854Z" fill="white"/>
</g>
<mask id="mask13_58_414" style="mask-type:luminance" maskUnits="userSpaceOnUse" x="100" y="86" width="5" height="12">
<path d="M100.333 86H104.333V98H100.333V86Z" fill="white"/>
</mask>
<g mask="url(#mask13_58_414)">
<path d="M103.01 86.2447L101.021 88.6666C100.99 88.703 100.974 88.7447 100.974 88.7916V97.8853C100.974 97.9947 101.068 98.0884 101.177 98.0884C101.286 98.0884 101.38 97.9947 101.38 97.8853V88.8645L103.318 86.4999C103.391 86.4114 103.38 86.2864 103.292 86.2134C103.208 86.1457 103.078 86.1562 103.01 86.2447Z" fill="white"/>
</g>
<mask id="mask14_58_414" style="mask-type:luminance" maskUnits="userSpaceOnUse" x="89" y="78" width="6" height="20">
<path d="M89.6667 78H95.0001V98H89.6667V78Z" fill="white"/>
</mask>
<g mask="url(#mask14_58_414)">
<path d="M90.5782 78.9427L93.8542 84.3125V97.8854C93.8542 97.9948 93.9428 98.0886 94.0573 98.0886C94.1667 98.0886 94.2553 97.9948 94.2553 97.8854V84.2604C94.2553 84.2188 94.2448 84.1875 94.2292 84.1511L90.9219 78.7344C90.8594 78.6407 90.7396 78.6094 90.6407 78.6667C90.5469 78.724 90.5157 78.849 90.5782 78.9427Z" fill="white"/>
</g>
<mask id="mask15_58_414" style="mask-type:luminance" maskUnits="userSpaceOnUse" x="91" y="86" width="3" height="12">
<path d="M91 86H93.6667V98H91V86Z" fill="white"/>
</mask>
<g mask="url(#mask15_58_414)">
<path d="M92.6042 97.8855V87.1199C92.6042 87.0053 92.5105 86.9167 92.4011 86.9167C92.2917 86.9167 92.198 87.0053 92.198 87.1199V97.8855C92.198 97.9949 92.2917 98.0886 92.4011 98.0886C92.5105 98.0886 92.6042 97.9949 92.6042 97.8855Z" fill="white"/>
</g>
<mask id="mask16_58_414" style="mask-type:luminance" maskUnits="userSpaceOnUse" x="85" y="82" width="6" height="16">
<path d="M85.9011 82H91.0001V98H85.9011V82Z" fill="white"/>
</mask>
<g mask="url(#mask16_58_414)">
<path d="M90.9479 97.8853V90.2968C90.9479 90.2447 90.9271 90.1926 90.8906 90.1562L87.3385 86.6301V83.3176C87.3385 83.2083 87.25 83.1145 87.1354 83.1145C87.026 83.1145 86.9375 83.2083 86.9375 83.3176V86.7135C86.9375 86.7655 86.9583 86.8176 86.9948 86.8541L90.5469 90.3853V97.8853C90.5469 97.9947 90.6354 98.0885 90.75 98.0885C90.8594 98.0885 90.9479 97.9947 90.9479 97.8853Z" fill="white"/>
</g>
<mask id="mask17_58_414" style="mask-type:luminance" maskUnits="userSpaceOnUse" x="101" y="67" width="5" height="3">
<path d="M101.667 67H105.667V70H101.667V67Z" fill="white"/>
</mask>
<g mask="url(#mask17_58_414)">
<path d="M104.729 68.2449H104.531C104.531 68.474 104.438 68.6772 104.287 68.8282C104.135 68.9792 103.927 69.073 103.698 69.073C103.469 69.073 103.26 68.9792 103.109 68.8282C102.958 68.6772 102.87 68.474 102.87 68.2449C102.87 68.0105 102.958 67.8074 103.109 67.6563C103.26 67.5053 103.469 67.4115 103.698 67.4115C103.927 67.4115 104.135 67.5053 104.287 67.6563C104.438 67.8074 104.531 68.0105 104.531 68.2449H104.932C104.932 67.5626 104.38 67.0105 103.698 67.0105C103.016 67.0105 102.464 67.5626 102.464 68.2449C102.464 68.922 103.016 69.474 103.698 69.474C104.38 69.474 104.932 68.922 104.932 68.2449H104.729Z" fill="white"/>
</g>
<path d="M101.646 69.2761H101.443C101.443 69.5053 101.349 69.7136 101.198 69.8647C101.047 70.0157 100.844 70.1042 100.609 70.1042C100.38 70.1042 100.177 70.0157 100.026 69.8647C99.875 69.7136 99.7813 69.5053 99.7813 69.2761C99.7813 69.047 99.875 68.8386 100.026 68.6876C100.177 68.5365 100.38 68.4428 100.609 68.4428C100.844 68.4428 101.047 68.5365 101.198 68.6876C101.349 68.8386 101.443 69.047 101.443 69.2761H101.844C101.844 68.5938 101.292 68.0417 100.609 68.0417C99.9323 68.0417 99.375 68.5938 99.375 69.2761C99.375 69.9584 99.9323 70.5105 100.609 70.5105C101.292 70.5105 101.844 69.9584 101.844 69.2761H101.646Z" fill="white"/>
<path d="M96.9688 76.4792H96.7656C96.7656 76.7084 96.6771 76.9167 96.526 77.0678C96.375 77.2188 96.1667 77.3126 95.9375 77.3126C95.7083 77.3126 95.5 77.2188 95.349 77.0678C95.1979 76.9167 95.1042 76.7084 95.1042 76.4792C95.1042 76.2501 95.1979 76.0417 95.349 75.8907C95.5 75.7397 95.7083 75.6511 95.9375 75.6511C96.1667 75.6511 96.375 75.7397 96.526 75.8907C96.6771 76.0417 96.7656 76.2501 96.7656 76.4792H97.1719C97.1719 75.797 96.6198 75.2449 95.9375 75.2449C95.2552 75.2449 94.7031 75.797 94.7031 76.4792C94.7031 77.1615 95.2552 77.7136 95.9375 77.7136C96.6198 77.7136 97.1719 77.1615 97.1719 76.4792H96.9688Z" fill="white"/>
<path d="M91.2083 77.9688H91.0052C91.0052 78.1979 90.9115 78.401 90.7604 78.5573C90.6094 78.7031 90.401 78.7969 90.1719 78.7969C89.9427 78.7969 89.7344 78.7031 89.5833 78.5573C89.4375 78.401 89.3438 78.1979 89.3438 77.9688C89.3438 77.7396 89.4375 77.5313 89.5833 77.3802C89.7344 77.2292 89.9427 77.1354 90.1719 77.1354C90.401 77.1354 90.6094 77.2292 90.7604 77.3802C90.9115 77.5313 91.0052 77.7396 91.0052 77.9688H91.4063C91.4063 77.2865 90.8542 76.7344 90.1719 76.7344C89.4896 76.7344 88.9375 77.2865 88.9375 77.9688C88.9375 78.6458 89.4896 79.2031 90.1719 79.2031C90.8542 79.2031 91.4063 78.6458 91.4063 77.9688H91.2083Z" fill="white"/>
<mask id="mask18_58_414" style="mask-type:luminance" maskUnits="userSpaceOnUse" x="85" y="80" width="5" height="5">
<path d="M85.9011 80.6667H89.6667V84.6667H85.9011V80.6667Z" fill="white"/>
</mask>
<g mask="url(#mask18_58_414)">
<path d="M88.1667 82.2866H87.9688C87.9688 82.5158 87.8751 82.7241 87.724 82.8752C87.573 83.0262 87.3647 83.1147 87.1355 83.1147C86.9063 83.1147 86.698 83.0262 86.547 82.8752C86.4011 82.7241 86.3074 82.5158 86.3074 82.2866C86.3074 82.0575 86.4011 81.8491 86.547 81.6981C86.698 81.547 86.9063 81.4533 87.1355 81.4533C87.3647 81.4533 87.573 81.547 87.724 81.6981C87.8751 81.8491 87.9688 82.0575 87.9688 82.2866H88.3699C88.3699 81.6043 87.8178 81.0522 87.1355 81.0522C86.4532 81.0522 85.9011 81.6043 85.9011 82.2866C85.9011 82.9689 86.4532 83.521 87.1355 83.521C87.8178 83.521 88.3699 82.9689 88.3699 82.2866H88.1667Z" fill="white"/>
</g>
<mask id="mask19_58_414" style="mask-type:luminance" maskUnits="userSpaceOnUse" x="107" y="75" width="4" height="5">
<path d="M107 75.3335H110.901V79.3335H107V75.3335Z" fill="white"/>
</mask>
<g mask="url(#mask19_58_414)">
<path d="M110.578 77.2659H110.375C110.375 77.495 110.281 77.6982 110.13 77.8492C109.979 78.0002 109.776 78.094 109.542 78.094C109.313 78.094 109.109 78.0002 108.958 77.8492C108.807 77.6982 108.714 77.495 108.714 77.2659C108.714 77.0315 108.807 76.8284 108.958 76.6773C109.109 76.5263 109.313 76.4325 109.542 76.4325C109.776 76.4325 109.979 76.5263 110.13 76.6773C110.281 76.8284 110.375 77.0315 110.375 77.2659H110.776C110.776 76.5836 110.224 76.0315 109.542 76.0315C108.865 76.0315 108.312 76.5836 108.312 77.2659C108.312 77.943 108.865 78.495 109.542 78.5002C110.224 78.495 110.776 77.943 110.776 77.2659H110.578Z" fill="white"/>
</g>
<path d="M105.63 93.0105H105.427C105.427 93.2397 105.338 93.448 105.187 93.599C105.036 93.7501 104.828 93.8438 104.599 93.8438C104.37 93.8438 104.161 93.7501 104.01 93.599C103.859 93.448 103.766 93.2397 103.766 93.0105C103.766 92.7813 103.859 92.573 104.01 92.422C104.161 92.2709 104.37 92.1772 104.599 92.1772C104.828 92.1772 105.036 92.2709 105.187 92.422C105.338 92.573 105.427 92.7813 105.427 93.0105H105.833C105.833 92.3282 105.281 91.7761 104.599 91.7761C103.917 91.7761 103.365 92.3282 103.365 93.0105C103.365 93.6928 103.917 94.2449 104.599 94.2449C105.281 94.2449 105.833 93.6928 105.833 93.0105H105.63Z" fill="white"/>
<path d="M104.823 85.547H104.62C104.62 85.7814 104.526 85.9845 104.375 86.1356C104.224 86.2866 104.021 86.3804 103.787 86.3804C103.557 86.3804 103.354 86.2866 103.203 86.1356C103.052 85.9845 102.958 85.7814 102.958 85.547C102.958 85.3179 103.052 85.1147 103.203 84.9637C103.354 84.8127 103.557 84.7189 103.787 84.7189C104.021 84.7189 104.224 84.8127 104.375 84.9637C104.526 85.1147 104.62 85.3179 104.62 85.547H105.021C105.021 84.87 104.469 84.3179 103.787 84.3179C103.109 84.3179 102.557 84.87 102.557 85.547C102.557 86.2293 103.109 86.7814 103.787 86.7814C104.469 86.7814 105.021 86.2293 105.021 85.547H104.823Z" fill="white"/>
<path d="M93.4324 86.0834H93.2345C93.2345 86.3178 93.1407 86.5209 92.9897 86.672C92.8386 86.823 92.6303 86.9167 92.4011 86.9167C92.172 86.9167 91.9636 86.823 91.8126 86.672C91.6615 86.5209 91.573 86.3178 91.573 86.0834C91.573 85.8542 91.6615 85.6511 91.8126 85.5001C91.9636 85.349 92.172 85.2553 92.4011 85.2553C92.6303 85.2553 92.8386 85.349 92.9897 85.5001C93.1407 85.6511 93.2345 85.8542 93.2345 86.0834H93.6355C93.6355 85.4063 93.0834 84.8542 92.4011 84.8542C91.7188 84.8542 91.1667 85.4063 91.1667 86.0834C91.1667 86.7657 91.7188 87.3178 92.4011 87.3178C93.0834 87.3178 93.6355 86.7657 93.6355 86.0834H93.4324Z" fill="white"/>
<path d="M108.047 74.3125H107.849C107.849 74.5469 107.755 74.75 107.604 74.901C107.453 75.0521 107.245 75.1458 107.016 75.1458C106.786 75.1458 106.578 75.0521 106.427 74.901C106.276 74.75 106.188 74.5469 106.188 74.3125C106.188 74.0833 106.276 73.8802 106.427 73.7292C106.578 73.5781 106.786 73.4844 107.016 73.4844C107.245 73.4844 107.453 73.5781 107.604 73.7292C107.755 73.8802 107.849 74.0833 107.849 74.3125H108.25C108.25 73.6354 107.698 73.0833 107.016 73.0781C106.333 73.0833 105.781 73.6354 105.781 74.3125C105.781 74.9948 106.333 75.5469 107.016 75.5469C107.698 75.5469 108.25 74.9948 108.25 74.3125H108.047Z" fill="white"/>
<path d="M130.719 53.2656H119.286L113.901 49.2552C113.87 49.2292 113.828 49.2188 113.786 49.2188H103.51C103.406 49.2188 103.318 49.3021 103.318 49.4063C103.318 49.5156 103.406 49.599 103.51 49.599H113.724L119.109 53.6146C119.141 53.6354 119.182 53.651 119.224 53.651H130.719C130.823 53.651 130.911 53.5677 130.911 53.4583C130.911 53.3542 130.823 53.2656 130.719 53.2656Z" fill="white"/>
<path d="M130.719 50.1146H125.063L119.677 46.099C119.646 46.0781 119.604 46.0625 119.563 46.0625H109.286C109.177 46.0625 109.094 46.1458 109.094 46.2552C109.094 46.3594 109.177 46.4479 109.286 46.4479H119.5L124.885 50.4583C124.917 50.4844 124.958 50.4948 125 50.4948H130.719C130.823 50.4948 130.911 50.4115 130.911 50.3021C130.911 50.1979 130.823 50.1146 130.719 50.1146Z" fill="white"/>
<path d="M130.719 54.9949H114.693L111.906 52.2084C111.87 52.172 111.823 52.1511 111.771 52.1511H104.526C104.417 52.1511 104.333 52.2397 104.333 52.3438C104.333 52.448 104.417 52.5365 104.526 52.5365H111.693L114.474 55.323C114.51 55.3595 114.562 55.3751 114.615 55.3751H130.719C130.823 55.3751 130.911 55.2917 130.911 55.1876C130.911 55.0782 130.823 54.9949 130.719 54.9949Z" fill="white"/>
<path d="M130.719 56.5991H111.344C111.24 56.5991 111.151 56.6825 111.151 56.7918C111.151 56.896 111.24 56.9845 111.344 56.9845H130.719C130.823 56.9845 130.912 56.896 130.912 56.7918C130.912 56.6825 130.823 56.5991 130.719 56.5991Z" fill="white"/>
<path d="M130.719 46.3281H123.901L120.109 43.6927C120.078 43.6719 120.042 43.6562 120 43.6562H112.089C111.984 43.6562 111.901 43.7448 111.901 43.849C111.901 43.9583 111.984 44.0417 112.089 44.0417H119.943L123.729 46.6771C123.766 46.6979 123.802 46.7135 123.839 46.7135H130.719C130.823 46.7135 130.912 46.625 130.912 46.5208C130.912 46.4167 130.823 46.3281 130.719 46.3281Z" fill="white"/>
<path d="M130.719 48.3594H127.068C126.958 48.3594 126.875 48.4479 126.875 48.5521C126.875 48.6563 126.958 48.7448 127.068 48.7448H130.719C130.823 48.7448 130.911 48.6563 130.911 48.5521C130.911 48.4479 130.823 48.3594 130.719 48.3594Z" fill="white"/>
<path d="M119.646 50.0627L121.953 51.9533C121.984 51.9845 122.031 52.0002 122.073 52.0002H130.719C130.823 52.0002 130.911 51.9116 130.911 51.8075C130.911 51.6981 130.823 51.6148 130.719 51.6148H122.141L119.891 49.771C119.807 49.7033 119.687 49.7137 119.62 49.797C119.552 49.8752 119.568 50.0002 119.646 50.0627Z" fill="white"/>
<path d="M112.708 61.8907L117.812 58.7709H130.719C130.823 58.7709 130.911 58.6876 130.911 58.5782C130.911 58.474 130.823 58.3855 130.719 58.3855H117.76C117.724 58.3855 117.693 58.3959 117.661 58.4167L112.505 61.5626C112.417 61.6147 112.391 61.7345 112.443 61.823C112.5 61.9167 112.615 61.9428 112.708 61.8907Z" fill="white"/>
<path d="M130.719 59.9585H120.479C120.375 59.9585 120.286 60.047 120.286 60.1512C120.286 60.2606 120.375 60.3439 120.479 60.3439H130.719C130.823 60.3439 130.911 60.2606 130.911 60.1512C130.911 60.047 130.823 59.9585 130.719 59.9585Z" fill="white"/>
<path d="M130.719 61.5312H123.505C123.453 61.5312 123.406 61.5521 123.37 61.5885L120.016 64.9688H116.865C116.76 64.9688 116.672 65.0521 116.672 65.1563C116.672 65.2656 116.76 65.349 116.865 65.349H120.094C120.146 65.349 120.193 65.3281 120.229 65.2917L123.583 61.9167H130.719C130.823 61.9167 130.911 61.8333 130.911 61.724C130.911 61.6198 130.823 61.5312 130.719 61.5312Z" fill="white"/>
<mask id="mask20_58_414" style="mask-type:luminance" maskUnits="userSpaceOnUse" x="101" y="47" width="4" height="5">
<path d="M101.354 47.3335H104.333V51.3335H101.354V47.3335Z" fill="white"/>
</mask>
<g mask="url(#mask20_58_414)">
<path d="M102.531 48.4273V48.62C102.75 48.62 102.943 48.7086 103.089 48.8492C103.229 48.995 103.318 49.1877 103.318 49.4065C103.318 49.6252 103.229 49.8232 103.089 49.969C102.943 50.1096 102.75 50.1982 102.531 50.1982C102.313 50.1982 102.115 50.1096 101.969 49.969C101.828 49.8232 101.74 49.6252 101.74 49.4065C101.74 49.1877 101.828 48.995 101.969 48.8492C102.115 48.7086 102.313 48.62 102.531 48.62V48.2346C101.88 48.2346 101.354 48.7607 101.354 49.4065C101.354 50.0575 101.88 50.5836 102.531 50.5836C103.177 50.5836 103.703 50.0575 103.703 49.4065C103.703 48.7607 103.177 48.2346 102.531 48.2346V48.4273Z" fill="white"/>
</g>
<path d="M103.51 51.3646V51.5521C103.729 51.5521 103.927 51.6406 104.068 51.7865C104.214 51.9271 104.302 52.125 104.302 52.3438C104.302 52.5625 104.214 52.7604 104.068 52.9063C103.927 53.0469 103.729 53.1354 103.51 53.1354C103.292 53.1354 103.094 53.0469 102.953 52.9063C102.807 52.7604 102.719 52.5625 102.719 52.3438C102.719 52.125 102.807 51.9271 102.953 51.7865C103.094 51.6406 103.292 51.5521 103.51 51.5521V51.1719C102.865 51.1719 102.339 51.6979 102.339 52.3438C102.339 52.9948 102.865 53.5156 103.51 53.5156C104.156 53.5156 104.682 52.9948 104.682 52.3438C104.682 51.6979 104.156 51.1719 103.51 51.1719V51.3646Z" fill="white"/>
<path d="M110.365 55.8074V56.0001C110.583 56.0001 110.776 56.0886 110.922 56.2345C111.068 56.3751 111.151 56.573 111.151 56.7917C111.151 57.0105 111.068 57.2084 110.922 57.349C110.776 57.4949 110.583 57.5782 110.365 57.5834C110.146 57.5782 109.948 57.4949 109.802 57.349C109.661 57.2084 109.573 57.0105 109.573 56.7917C109.573 56.573 109.661 56.3751 109.802 56.2345C109.948 56.0886 110.146 56.0001 110.365 56.0001V55.6199C109.714 55.6199 109.188 56.1407 109.188 56.7917C109.188 57.4376 109.714 57.9636 110.365 57.9636C111.01 57.9636 111.536 57.4376 111.536 56.7917C111.536 56.1407 111.01 55.6199 110.365 55.6199V55.8074Z" fill="white"/>
<path d="M111.776 61.2918V61.4793C111.995 61.4793 112.193 61.5679 112.339 61.7137C112.479 61.8543 112.568 62.0522 112.568 62.271C112.568 62.4897 112.479 62.6877 112.339 62.8283C112.193 62.9741 111.995 63.0627 111.776 63.0627C111.557 63.0627 111.365 62.9741 111.219 62.8283C111.073 62.6877 110.99 62.4897 110.99 62.271C110.99 62.0522 111.073 61.8543 111.219 61.7137C111.365 61.5679 111.557 61.4793 111.776 61.4793V61.0991C111.13 61.0991 110.604 61.6252 110.604 62.271C110.604 62.9168 111.13 63.4429 111.776 63.4429C112.427 63.4429 112.948 62.9168 112.948 62.271C112.948 61.6252 112.427 61.0991 111.776 61.0991V61.2918Z" fill="white"/>
<mask id="mask21_58_414" style="mask-type:luminance" maskUnits="userSpaceOnUse" x="113" y="63" width="5" height="4">
<path d="M113.667 63.3335H117.667V66.3335H113.667V63.3335Z" fill="white"/>
</mask>
<g mask="url(#mask21_58_414)">
<path d="M115.886 64.1773V64.37C116.104 64.37 116.297 64.4586 116.443 64.5992C116.589 64.745 116.672 64.943 116.672 65.1565C116.672 65.3805 116.589 65.5732 116.443 65.719C116.297 65.8596 116.104 65.9482 115.886 65.9482C115.667 65.9482 115.469 65.8596 115.323 65.719C115.182 65.5732 115.094 65.3805 115.094 65.1565C115.094 64.943 115.182 64.745 115.323 64.5992C115.469 64.4586 115.667 64.37 115.886 64.37V63.9846C115.235 63.9846 114.708 64.5107 114.708 65.1565C114.708 65.8075 115.235 66.3336 115.886 66.3336C116.531 66.3336 117.057 65.8075 117.057 65.1565C117.057 64.5107 116.531 63.9846 115.886 63.9846V64.1773Z" fill="white"/>
</g>
<mask id="mask22_58_414" style="mask-type:luminance" maskUnits="userSpaceOnUse" x="109" y="42" width="4" height="5">
<path d="M109.667 42.3335H112.333V46.0002H109.667V42.3335Z" fill="white"/>
</mask>
<g mask="url(#mask22_58_414)">
<path d="M111.109 42.87V43.0575C111.328 43.0575 111.526 43.146 111.667 43.2918C111.813 43.4325 111.901 43.6304 111.901 43.8491C111.901 44.0679 111.813 44.2658 111.667 44.4116C111.526 44.5522 111.328 44.6408 111.109 44.6408C110.891 44.6408 110.693 44.5522 110.547 44.4116C110.406 44.2658 110.318 44.0679 110.318 43.8491C110.318 43.6304 110.406 43.4325 110.547 43.2918C110.693 43.146 110.891 43.0575 111.109 43.0575V42.6772C110.458 42.6772 109.938 43.2033 109.938 43.8491C109.938 44.5002 110.458 45.021 111.109 45.021C111.755 45.021 112.281 44.5002 112.281 43.8491C112.281 43.2033 111.755 42.6772 111.109 42.6772V42.87Z" fill="white"/>
</g>
<path d="M126.083 47.5731V47.7606C126.302 47.7606 126.5 47.8491 126.641 47.995C126.786 48.1356 126.875 48.3335 126.875 48.5522C126.875 48.771 126.786 48.9689 126.641 49.1095C126.5 49.2554 126.302 49.3439 126.083 49.3439C125.865 49.3439 125.667 49.2554 125.526 49.1095C125.38 48.9689 125.292 48.771 125.292 48.5522C125.292 48.3335 125.38 48.1356 125.526 47.995C125.667 47.8491 125.865 47.7606 126.083 47.7606V47.3804C125.437 47.3804 124.911 47.9064 124.911 48.5522C124.911 49.2033 125.437 49.7241 126.083 49.7241C126.729 49.7241 127.255 49.2033 127.255 48.5522C127.255 47.9064 126.729 47.3804 126.083 47.3804V47.5731Z" fill="white"/>
<path d="M118.99 48.3436V48.5311C119.208 48.5311 119.401 48.6196 119.547 48.7655C119.688 48.9061 119.776 49.104 119.776 49.3228C119.776 49.5415 119.688 49.7394 119.547 49.88C119.401 50.0259 119.208 50.1144 118.99 50.1144C118.771 50.1144 118.573 50.0259 118.427 49.88C118.286 49.7394 118.198 49.5415 118.198 49.3228C118.198 49.104 118.286 48.9061 118.427 48.7655C118.573 48.6196 118.771 48.5311 118.99 48.5311V48.1509C118.339 48.1509 117.812 48.6769 117.812 49.3228C117.812 49.9686 118.339 50.4946 118.99 50.4946C119.635 50.4946 120.161 49.9686 120.161 49.3228C120.161 48.6769 119.635 48.1509 118.99 48.1509V48.3436Z" fill="white"/>
<path d="M119.5 59.172V59.3647C119.719 59.3647 119.912 59.448 120.057 59.5938C120.198 59.7397 120.287 59.9324 120.287 60.1511C120.287 60.3699 120.198 60.5678 120.057 60.7136C119.912 60.8542 119.719 60.9428 119.5 60.9428C119.281 60.9428 119.083 60.8542 118.938 60.7136C118.797 60.5678 118.708 60.3699 118.708 60.1511C118.708 59.9324 118.797 59.7397 118.938 59.5938C119.083 59.448 119.281 59.3647 119.5 59.3647V58.9792C118.849 58.9792 118.323 59.5053 118.323 60.1511C118.323 60.8022 118.849 61.323 119.5 61.323C120.146 61.323 120.672 60.8022 120.672 60.1511C120.672 59.5053 120.146 58.9792 119.5 58.9792V59.172Z" fill="white"/>
<path d="M108.302 45.271V45.4637C108.521 45.4637 108.719 45.5522 108.865 45.6929C109.005 45.8387 109.094 46.0366 109.094 46.2554C109.094 46.4741 109.005 46.672 108.865 46.8127C108.719 46.9585 108.521 47.0418 108.302 47.0418C108.083 47.0418 107.891 46.9585 107.745 46.8127C107.599 46.672 107.516 46.4741 107.516 46.2554C107.516 46.0366 107.599 45.8387 107.745 45.6929C107.891 45.5522 108.083 45.4637 108.302 45.4637V45.0835C107.656 45.0835 107.13 45.6043 107.13 46.2554C107.13 46.9012 107.656 47.4272 108.302 47.4272C108.953 47.4272 109.474 46.9012 109.479 46.2554C109.474 45.6043 108.953 45.0835 108.302 45.0835V45.271Z" fill="white"/>
<path d="M92.3072 15.62V27.0522L88.2916 32.4377C88.2708 32.4689 88.2551 32.5106 88.2551 32.5522V42.8283C88.2551 42.9325 88.3437 43.021 88.4478 43.021C88.552 43.021 88.6405 42.9325 88.6405 42.8283V32.6147L92.651 27.2293C92.677 27.1981 92.6874 27.1564 92.6874 27.1147V15.62C92.6874 15.5158 92.6041 15.4272 92.4999 15.4272C92.3905 15.4272 92.3072 15.5158 92.3072 15.62Z" fill="white"/>
<path d="M89.151 15.62V21.2762L85.1405 26.6616C85.1145 26.6981 85.0989 26.7397 85.0989 26.7762V37.0522C85.0989 37.1616 85.1874 37.245 85.2916 37.245C85.401 37.245 85.4843 37.1616 85.4843 37.0522V26.8439L89.4999 21.4585C89.5208 21.422 89.5364 21.3856 89.5364 21.3439V15.62C89.5364 15.5158 89.4478 15.4272 89.3437 15.4272C89.2395 15.4272 89.151 15.5158 89.151 15.62Z" fill="white"/>
<path d="M94.0312 15.62V31.646L91.2499 34.4325C91.2135 34.4689 91.1926 34.5158 91.1926 34.5679V41.8179C91.1926 41.922 91.276 42.0054 91.3853 42.0054C91.4895 42.0054 91.5728 41.922 91.5728 41.8179V34.646L94.3593 31.8647C94.3958 31.8283 94.4166 31.7762 94.4166 31.7293V15.62C94.4166 15.5158 94.328 15.4272 94.2239 15.4272C94.1197 15.4272 94.0312 15.5158 94.0312 15.62Z" fill="white"/>
<mask id="mask23_58_414" style="mask-type:luminance" maskUnits="userSpaceOnUse" x="87" y="42" width="3" height="3">
<path d="M87 42H89.6667V44.9896H87V42Z" fill="white"/>
</mask>
<g mask="url(#mask23_58_414)">
<path d="M87.4636 43.8126H87.6563C87.6563 43.5938 87.7449 43.3959 87.8907 43.2501C88.0313 43.1095 88.2292 43.0209 88.448 43.0209C88.6667 43.0209 88.8647 43.1095 89.0053 43.2501C89.1511 43.3959 89.2397 43.5938 89.2397 43.8126C89.2397 44.0313 89.1511 44.224 89.0053 44.3699C88.8647 44.5105 88.6667 44.599 88.448 44.599C88.2292 44.599 88.0313 44.5105 87.8907 44.3699C87.7449 44.224 87.6563 44.0313 87.6563 43.8126H87.2761C87.2761 44.4584 87.797 44.9845 88.448 44.9845C89.0938 44.9845 89.6199 44.4584 89.6199 43.8126C89.6199 43.1615 89.0938 42.6355 88.448 42.6355C87.797 42.6355 87.2761 43.1615 87.2761 43.8126H87.4636Z" fill="white"/>
</g>
<path d="M90.401 42.8281H90.5937C90.5937 42.6094 90.6822 42.4115 90.8228 42.2708C90.9687 42.125 91.1666 42.0365 91.3853 42.0365C91.6041 42.0365 91.7968 42.125 91.9426 42.2708C92.0885 42.4115 92.1718 42.6094 92.1718 42.8281C92.1718 43.0469 92.0885 43.2448 91.9426 43.3854C91.7968 43.5313 91.6041 43.6198 91.3853 43.6198C91.1666 43.6198 90.9687 43.5313 90.8228 43.3854C90.6822 43.2448 90.5937 43.0469 90.5937 42.8281H90.2083C90.2083 43.4792 90.7343 44 91.3853 44C92.0312 44 92.5572 43.4792 92.5572 42.8281C92.5572 42.1823 92.0312 41.6562 91.3853 41.6562C90.7343 41.6562 90.2083 42.1823 90.2083 42.8281H90.401Z" fill="white"/>
<path d="M94.849 35.9741H95.0417C95.0417 35.7554 95.125 35.5627 95.2708 35.4168C95.4167 35.2762 95.6094 35.1877 95.8281 35.1877C96.0469 35.1877 96.2448 35.2762 96.3906 35.4168C96.5313 35.5627 96.6198 35.7554 96.6198 35.9741C96.6198 36.1981 96.5313 36.3908 96.3906 36.5366C96.2448 36.6772 96.0469 36.7658 95.8281 36.7658C95.6094 36.7658 95.4167 36.6772 95.2708 36.5366C95.125 36.3908 95.0417 36.1981 95.0417 35.9741H94.6562C94.6562 36.6252 95.1823 37.1512 95.8281 37.1512C96.4792 37.1512 97.0052 36.6252 97.0052 35.9741C97.0052 35.3283 96.4792 34.8022 95.8281 34.8022C95.1823 34.8022 94.6562 35.3283 94.6562 35.9741H94.849Z" fill="white"/>
<path d="M84.3126 38.0366H84.5053C84.5053 37.8179 84.5886 37.62 84.7345 37.4793C84.8803 37.3335 85.073 37.245 85.2917 37.245C85.5105 37.245 85.7084 37.3335 85.8542 37.4793C85.9949 37.62 86.0834 37.8179 86.0834 38.0366C86.0834 38.2554 85.9949 38.4533 85.8542 38.5939C85.7084 38.7397 85.5105 38.8283 85.2917 38.8283C85.073 38.8283 84.8803 38.7397 84.7345 38.5939C84.5886 38.4533 84.5053 38.2554 84.5053 38.0366H84.1199C84.1199 38.6825 84.6459 39.2085 85.2917 39.2085C85.9428 39.2085 86.4636 38.6825 86.4636 38.0366C86.4636 37.3908 85.9428 36.8647 85.2917 36.8647C84.6459 36.8647 84.1199 37.3908 84.1199 38.0366H84.3126Z" fill="white"/>
<path d="M186.351 52.2642L181.621 60.7225H176.871L172.121 52.2642V65.4725H166.038V41.7642H172.476L179.246 54.285L186.017 41.7642H192.455V65.4725H186.351V52.2642Z" fill="white"/>
<path d="M205.69 51.4101C204.784 51.4101 204.336 51.8632 204.336 52.7642V54.6392H210.086V52.7642C210.086 51.8632 209.633 51.4101 208.732 51.4101H205.69ZM215.336 65.1392C210.972 65.582 207.024 65.8059 203.482 65.8059C201.94 65.8059 200.701 65.3476 199.774 64.4309C198.857 63.5038 198.399 62.2642 198.399 60.7226V52.5976C198.399 50.9049 198.878 49.5767 199.836 48.6184C200.795 47.6601 202.117 47.1809 203.815 47.1809H210.586C212.279 47.1809 213.607 47.6601 214.565 48.6184C215.534 49.5767 216.024 50.9049 216.024 52.5976V58.8684H204.336V60.2226C204.336 60.5559 204.446 60.8424 204.67 61.0767C204.888 61.3007 205.175 61.4101 205.524 61.4101C207.742 61.4101 211.013 61.2382 215.336 60.8892V65.1392Z" fill="white"/>
<path d="M234.331 65.4725L233.997 63.785C232.924 64.4829 231.831 64.9933 230.706 65.3267C229.591 65.6444 228.654 65.8058 227.893 65.8058H226.372C224.831 65.8058 223.591 65.3475 222.664 64.4308C221.747 63.5037 221.289 62.2642 221.289 60.7225V52.9308C221.289 51.2381 221.768 49.91 222.727 48.9517C223.685 47.9933 225.008 47.5142 226.706 47.5142H233.664V41.7642H239.581V65.4725H234.331ZM229.581 60.8892C230.789 60.8892 232.148 60.6704 233.664 60.2225V52.0975H228.581C227.674 52.0975 227.227 52.5506 227.227 53.4517V59.7225C227.227 60.0558 227.336 60.3371 227.56 60.5558C227.779 60.7798 228.065 60.8892 228.414 60.8892H229.581Z" fill="white"/>
<path d="M245.154 60.5558C251.346 60.9048 255.539 61.0767 257.737 61.0767C258.247 61.0767 258.659 60.9256 258.966 60.6183C259.268 60.3162 259.425 59.8996 259.425 59.3683V56.3267H251.633C249.258 56.3267 247.534 55.7954 246.466 54.7225C245.393 53.6548 244.862 51.9308 244.862 49.5558V48.535C244.862 46.16 245.393 44.4412 246.466 43.3683C247.534 42.3006 249.258 41.7642 251.633 41.7642H263.529V46.4933H252.987C251.622 46.4933 250.945 47.1756 250.945 48.535V49.2225C250.945 50.5715 251.622 51.2433 252.987 51.2433H259.091C261.3 51.2433 262.925 51.7642 263.966 52.8058C265.008 53.8475 265.529 55.4725 265.529 57.6808V59.3683C265.529 61.5923 265.008 63.2225 263.966 64.2642C262.925 65.2954 261.3 65.8058 259.091 65.8058C257.935 65.8058 256.716 65.785 255.425 65.7433L252.32 65.6183C250.013 65.4933 247.622 65.3371 245.154 65.1392V60.5558Z" fill="white"/>
<path d="M280.789 52.0976C279.591 52.0976 278.237 52.3215 276.727 52.7642V60.8892H281.81C282.711 60.8892 283.164 60.4413 283.164 59.5351V53.2851C283.164 52.9413 283.045 52.6549 282.81 52.4309C282.586 52.2122 282.31 52.0976 281.977 52.0976H280.789ZM276.727 65.4726V71.2226H270.789V47.5142H276.039L276.393 49.2226C277.446 48.5142 278.529 48.0038 279.643 47.6809C280.768 47.3476 281.711 47.1809 282.477 47.1809H283.998C285.539 47.1809 286.768 47.6497 287.685 48.5767C288.612 49.4934 289.081 50.7226 289.081 52.2642V60.0559C289.081 61.7538 288.602 63.0767 287.643 64.0351C286.685 64.9934 285.357 65.4726 283.664 65.4726H276.727Z" fill="white"/>
<path d="M301.654 51.4101C300.747 51.4101 300.3 51.8632 300.3 52.7642V54.6392H306.05V52.7642C306.05 51.8632 305.596 51.4101 304.695 51.4101H301.654ZM311.3 65.1392C306.935 65.582 302.987 65.8059 299.445 65.8059C297.904 65.8059 296.664 65.3476 295.737 64.4309C294.82 63.5038 294.362 62.2642 294.362 60.7226V52.5976C294.362 50.9049 294.841 49.5767 295.8 48.6184C296.758 47.6601 298.081 47.1809 299.779 47.1809H306.55C308.242 47.1809 309.57 47.6601 310.529 48.6184C311.497 49.5767 311.987 50.9049 311.987 52.5976V58.8684H300.3V60.2226C300.3 60.5559 300.409 60.8424 300.633 61.0767C300.852 61.3007 301.138 61.4101 301.487 61.4101C303.706 61.4101 306.977 61.2382 311.3 60.8892V65.1392Z" fill="white"/>
<path d="M323.523 58.3683V65.4725H317.586V41.7642H323.523V53.785H326.232L329.961 47.5142H336.232L331.148 56.16L336.232 65.4725H329.961L326.065 58.3683H323.523Z" fill="white"/>
<path d="M353.018 65.4725C350.82 65.6912 348.674 65.8058 346.58 65.8058C345.039 65.8058 343.799 65.3475 342.872 64.4308C341.955 63.5037 341.497 62.2642 341.497 60.7225V52.0975H339.476V47.5142H341.497L342.184 43.4517H347.434V47.5142H351.664V52.0975H347.434V59.8892C347.434 60.2225 347.544 60.509 347.768 60.7433C347.986 60.9673 348.273 61.0767 348.622 61.0767H353.018V65.4725Z" fill="white"/>
<path d="M376.241 60.3892C376.241 62.0872 375.762 63.4101 374.803 64.3684C373.845 65.3267 372.517 65.8059 370.824 65.8059H363.032C361.334 65.8059 360.012 65.3267 359.053 64.3684C358.095 63.4101 357.616 62.0872 357.616 60.3892V52.5976C357.616 50.9049 358.095 49.5767 359.053 48.6184C360.012 47.6601 361.334 47.1809 363.032 47.1809H370.824C372.517 47.1809 373.845 47.6601 374.803 48.6184C375.762 49.5767 376.241 50.9049 376.241 52.5976V60.3892ZM370.324 53.1184C370.324 52.2017 369.871 51.7434 368.97 51.7434H364.907C364.001 51.7434 363.553 52.2017 363.553 53.1184V59.8892C363.553 60.7955 364.001 61.2434 364.907 61.2434H368.97C369.871 61.2434 370.324 60.7955 370.324 59.8892V53.1184Z" fill="white"/>
</svg>
