<svg xmlns="http://www.w3.org/2000/svg" xmlns:xlink="http://www.w3.org/1999/xlink" width="500" zoomAndPan="magnify" viewBox="0 0 375 374.999991" height="500" preserveAspectRatio="xMidYMid meet" version="1.0"><defs><g/><clipPath id="3669b571ff"><path d="M 76.007812 154.882812 L 157.007812 154.882812 L 157.007812 235.886719 L 76.007812 235.886719 Z M 76.007812 154.882812 " clip-rule="nonzero"/></clipPath><clipPath id="279f5ec88c"><path d="M 116.507812 154.882812 C 94.140625 154.882812 76.007812 173.015625 76.007812 195.382812 C 76.007812 217.753906 94.140625 235.886719 116.507812 235.886719 C 138.875 235.886719 157.007812 217.753906 157.007812 195.382812 C 157.007812 173.015625 138.875 154.882812 116.507812 154.882812 Z M 116.507812 154.882812 " clip-rule="nonzero"/></clipPath><clipPath id="3ff0fc5e9f"><path d="M 71.527344 157.316406 L 152.53125 157.316406 L 152.53125 238.316406 L 71.527344 238.316406 Z M 71.527344 157.316406 " clip-rule="nonzero"/></clipPath><clipPath id="6a9bdf8335"><path d="M 112.027344 157.316406 C 89.660156 157.316406 71.527344 175.449219 71.527344 197.816406 C 71.527344 220.183594 89.660156 238.316406 112.027344 238.316406 C 134.398438 238.316406 152.53125 220.183594 152.53125 197.816406 C 152.53125 175.449219 134.398438 157.316406 112.027344 157.316406 Z M 112.027344 157.316406 " clip-rule="nonzero"/></clipPath><clipPath id="9a7c53ec44"><path d="M 92 166.511719 L 140.570312 166.511719 L 140.570312 224.261719 L 92 224.261719 Z M 92 166.511719 " clip-rule="nonzero"/></clipPath><clipPath id="42a39789f1"><path d="M 43.070312 187 L 49 187 L 49 192 L 43.070312 192 Z M 43.070312 187 " clip-rule="nonzero"/></clipPath><clipPath id="1197a6afc8"><path d="M 43.070312 201 L 48 201 L 48 206 L 43.070312 206 Z M 43.070312 201 " clip-rule="nonzero"/></clipPath><clipPath id="2779b628d8"><path d="M 117 206 L 121 206 L 121 228 L 117 228 Z M 117 206 " clip-rule="nonzero"/></clipPath><clipPath id="38f5d54520"><path d="M 119 210 L 124 210 L 124 228 L 119 228 Z M 119 210 " clip-rule="nonzero"/></clipPath><clipPath id="5d2ef169a5"><path d="M 115 207 L 119 207 L 119 228 L 115 228 Z M 115 207 " clip-rule="nonzero"/></clipPath><clipPath id="d0f4c26ff8"><path d="M 114 212 L 115 212 L 115 228 L 114 228 Z M 114 212 " clip-rule="nonzero"/></clipPath><clipPath id="1d3a554e8c"><path d="M 122 213 L 125.925781 213 L 125.925781 228 L 122 228 Z M 122 213 " clip-rule="nonzero"/></clipPath><clipPath id="b755181b88"><path d="M 121 224 L 122 224 L 122 228 L 121 228 Z M 121 224 " clip-rule="nonzero"/></clipPath><clipPath id="91bed59835"><path d="M 118 219 L 121 219 L 121 228 L 118 228 Z M 118 219 " clip-rule="nonzero"/></clipPath><clipPath id="763bca16c7"><path d="M 110 213 L 114 213 L 114 228 L 110 228 Z M 110 213 " clip-rule="nonzero"/></clipPath><clipPath id="6c5538aebf"><path d="M 111 219 L 113 219 L 113 228 L 111 228 Z M 111 219 " clip-rule="nonzero"/></clipPath><clipPath id="e45044dde4"><path d="M 107.175781 216 L 111 216 L 111 228 L 107.175781 228 Z M 107.175781 216 " clip-rule="nonzero"/></clipPath><clipPath id="73629c85d2"><path d="M 119 204.75 L 122 204.75 L 122 207 L 119 207 Z M 119 204.75 " clip-rule="nonzero"/></clipPath><clipPath id="7d9e630fac"><path d="M 107.175781 215 L 110 215 L 110 218 L 107.175781 218 Z M 107.175781 215 " clip-rule="nonzero"/></clipPath><clipPath id="7e6609428b"><path d="M 123 211 L 125.925781 211 L 125.925781 214 L 123 214 Z M 123 211 " clip-rule="nonzero"/></clipPath><clipPath id="e35836eb0d"><path d="M 118.765625 190 L 121 190 L 121 193 L 118.765625 193 Z M 118.765625 190 " clip-rule="nonzero"/></clipPath><clipPath id="834984d66f"><path d="M 128 202 L 131 202 L 131 204.25 L 128 204.25 Z M 128 202 " clip-rule="nonzero"/></clipPath><clipPath id="79bb975297"><path d="M 125 186.25 L 127 186.25 L 127 189 L 125 189 Z M 125 186.25 " clip-rule="nonzero"/></clipPath><clipPath id="5ba5088400"><path d="M 118 166 L 121.777344 166 L 121.777344 177 L 118 177 Z M 118 166 " clip-rule="nonzero"/></clipPath><clipPath id="aa7a6725e6"><path d="M 108 186 L 110 186 L 110 188.242188 L 108 188.242188 Z M 108 186 " clip-rule="nonzero"/></clipPath><clipPath id="e248ebcdbd"><path d="M 120 176 L 121.777344 176 L 121.777344 179 L 120 179 Z M 120 176 " clip-rule="nonzero"/></clipPath></defs><g clip-path="url(#3669b571ff)"><g clip-path="url(#279f5ec88c)"><path fill="#050a30" d="M 76.007812 154.882812 L 157.007812 154.882812 L 157.007812 235.886719 L 76.007812 235.886719 Z M 76.007812 154.882812 " fill-opacity="1" fill-rule="nonzero"/></g></g><g clip-path="url(#3ff0fc5e9f)"><g clip-path="url(#6a9bdf8335)"><path fill="#ffffff" d="M 71.527344 157.316406 L 152.53125 157.316406 L 152.53125 238.316406 L 71.527344 238.316406 Z M 71.527344 157.316406 " fill-opacity="1" fill-rule="nonzero"/></g></g><g clip-path="url(#9a7c53ec44)"><path fill="#ef3a5d" d="M 140.933594 197.511719 L 140.941406 201.101562 C 140.941406 202.433594 139.847656 203.523438 138.519531 203.523438 L 123.398438 203.53125 C 122.070312 203.53125 120.980469 204.613281 120.980469 205.949219 L 120.984375 221.699219 C 120.984375 223.027344 119.894531 224.113281 118.566406 224.113281 L 114.976562 224.113281 C 113.644531 224.113281 111.460938 224.121094 110.132812 224.121094 L 106.542969 224.121094 C 105.214844 224.121094 104.121094 223.027344 104.121094 221.699219 L 104.117188 205.953125 C 104.117188 204.621094 103.03125 203.53125 101.695312 203.53125 L 92.558594 203.535156 L 92.558594 202 L 96.953125 202 L 96.953125 198.234375 L 94.234375 198.234375 L 94.234375 193.84375 L 98.625 193.84375 L 98.625 189.765625 L 95.804688 189.765625 L 95.804688 186.671875 L 101.695312 186.667969 C 103.023438 186.667969 104.117188 185.582031 104.117188 184.25 L 104.109375 169.132812 C 104.109375 167.796875 105.195312 166.710938 106.53125 166.710938 L 110.121094 166.710938 C 111.449219 166.710938 113.625 166.710938 114.964844 166.703125 L 118.550781 166.703125 C 119.882812 166.703125 120.972656 167.796875 120.972656 169.125 L 120.972656 184.246094 C 120.972656 185.574219 122.0625 186.667969 123.394531 186.667969 L 138.511719 186.660156 C 139.847656 186.660156 140.933594 187.75 140.933594 189.082031 L 140.933594 192.667969 C 140.933594 194 140.933594 196.183594 140.933594 197.511719 Z M 140.933594 197.511719 " fill-opacity="1" fill-rule="nonzero"/></g><path fill="#ef3a5d" d="M 88.484375 193.84375 L 92.558594 193.84375 L 92.558594 197.921875 L 88.484375 197.921875 Z M 88.484375 193.84375 " fill-opacity="1" fill-rule="nonzero"/><path fill="#ef3a5d" d="M 88.484375 187.101562 L 92.558594 187.101562 L 92.558594 191.175781 L 88.484375 191.175781 Z M 88.484375 187.101562 " fill-opacity="1" fill-rule="nonzero"/><path fill="#ef3a5d" d="M 85.878906 203.179688 L 89.957031 203.179688 L 89.957031 207.253906 L 85.878906 207.253906 Z M 85.878906 203.179688 " fill-opacity="1" fill-rule="nonzero"/><path fill="#ef3a5d" d="M 81.800781 197.054688 L 85.878906 197.054688 L 85.878906 201.132812 L 81.800781 201.132812 Z M 81.800781 197.054688 " fill-opacity="1" fill-rule="nonzero"/><path fill="#ef3a5d" d="M 81.113281 189.765625 L 85.1875 189.765625 L 85.1875 193.84375 L 81.113281 193.84375 Z M 81.113281 189.765625 " fill-opacity="1" fill-rule="nonzero"/><path fill="#ef3a5d" d="M 77.722656 183.023438 L 81.800781 183.023438 L 81.800781 187.101562 L 77.722656 187.101562 Z M 77.722656 183.023438 " fill-opacity="1" fill-rule="nonzero"/><path fill="#ef3a5d" d="M 70.667969 199.101562 L 74.746094 199.101562 L 74.746094 203.179688 L 70.667969 203.179688 Z M 70.667969 199.101562 " fill-opacity="1" fill-rule="nonzero"/><path fill="#ef3a5d" d="M 68.628906 189.765625 L 72.707031 189.765625 L 72.707031 193.84375 L 68.628906 193.84375 Z M 68.628906 189.765625 " fill-opacity="1" fill-rule="nonzero"/><path fill="#ef3a5d" d="M 61.101562 173.925781 L 65.175781 173.925781 L 65.175781 178.003906 L 61.101562 178.003906 Z M 61.101562 173.925781 " fill-opacity="1" fill-rule="nonzero"/><path fill="#ef3a5d" d="M 59.0625 183.648438 L 63.140625 183.648438 L 63.140625 187.726562 L 59.0625 187.726562 Z M 59.0625 183.648438 " fill-opacity="1" fill-rule="nonzero"/><path fill="#ef3a5d" d="M 54.984375 196.667969 L 59.0625 196.667969 L 59.0625 200.746094 L 54.984375 200.746094 Z M 54.984375 196.667969 " fill-opacity="1" fill-rule="nonzero"/><g clip-path="url(#42a39789f1)"><path fill="#ef3a5d" d="M 43.941406 187.726562 L 48.019531 187.726562 L 48.019531 191.804688 L 43.941406 191.804688 Z M 43.941406 187.726562 " fill-opacity="1" fill-rule="nonzero"/></g><g clip-path="url(#1197a6afc8)"><path fill="#ef3a5d" d="M 43.0625 201.132812 L 47.140625 201.132812 L 47.140625 205.210938 L 43.0625 205.210938 Z M 43.0625 201.132812 " fill-opacity="1" fill-rule="nonzero"/></g><g clip-path="url(#2779b628d8)"><path fill="#ffffff" d="M 117.480469 227.914062 L 117.480469 218.898438 L 120.644531 214.652344 C 120.664062 214.625 120.675781 214.59375 120.675781 214.558594 L 120.675781 206.457031 C 120.675781 206.371094 120.609375 206.304688 120.523438 206.304688 C 120.441406 206.304688 120.375 206.371094 120.375 206.457031 L 120.375 214.511719 L 117.207031 218.757812 C 117.1875 218.78125 117.179688 218.816406 117.179688 218.847656 L 117.179688 227.914062 C 117.179688 227.996094 117.246094 228.066406 117.328125 228.066406 C 117.414062 228.066406 117.480469 227.996094 117.480469 227.914062 " fill-opacity="1" fill-rule="nonzero"/></g><g clip-path="url(#38f5d54520)"><path fill="#ffffff" d="M 119.96875 227.914062 L 119.96875 223.453125 L 123.132812 219.203125 C 123.152344 219.179688 123.164062 219.148438 123.164062 219.113281 L 123.164062 211.011719 C 123.164062 210.925781 123.09375 210.859375 123.011719 210.859375 C 122.929688 210.859375 122.859375 210.925781 122.859375 211.011719 L 122.859375 219.0625 L 119.695312 223.3125 C 119.675781 223.335938 119.667969 223.367188 119.667969 223.402344 L 119.667969 227.914062 C 119.667969 227.996094 119.734375 228.066406 119.816406 228.066406 C 119.902344 228.066406 119.96875 227.996094 119.96875 227.914062 " fill-opacity="1" fill-rule="nonzero"/></g><g clip-path="url(#5d2ef169a5)"><path fill="#ffffff" d="M 116.121094 227.914062 L 116.121094 215.273438 L 118.316406 213.078125 C 118.34375 213.050781 118.359375 213.011719 118.359375 212.972656 L 118.359375 207.253906 C 118.359375 207.171875 118.292969 207.105469 118.207031 207.105469 C 118.125 207.105469 118.058594 207.171875 118.058594 207.253906 L 118.058594 212.910156 L 115.859375 215.105469 C 115.832031 215.132812 115.816406 215.171875 115.816406 215.210938 L 115.816406 227.914062 C 115.816406 227.996094 115.882812 228.066406 115.96875 228.066406 C 116.050781 228.066406 116.121094 227.996094 116.121094 227.914062 " fill-opacity="1" fill-rule="nonzero"/></g><g clip-path="url(#d0f4c26ff8)"><path fill="#ffffff" d="M 114.851562 227.914062 L 114.851562 212.632812 C 114.851562 212.550781 114.785156 212.484375 114.703125 212.484375 C 114.617188 212.484375 114.550781 212.550781 114.550781 212.632812 L 114.550781 227.914062 C 114.550781 227.996094 114.617188 228.066406 114.703125 228.066406 C 114.785156 228.066406 114.851562 227.996094 114.851562 227.914062 " fill-opacity="1" fill-rule="nonzero"/></g><g clip-path="url(#1d3a554e8c)"><path fill="#ffffff" d="M 122.953125 227.914062 L 122.953125 222.535156 L 125.03125 219.546875 C 125.050781 219.523438 125.058594 219.492188 125.058594 219.460938 L 125.058594 213.222656 C 125.058594 213.136719 124.992188 213.070312 124.90625 213.070312 C 124.824219 213.070312 124.757812 213.136719 124.757812 213.222656 L 124.757812 219.414062 L 122.679688 222.402344 C 122.660156 222.429688 122.652344 222.457031 122.652344 222.488281 L 122.652344 227.914062 C 122.652344 227.996094 122.71875 228.066406 122.800781 228.066406 C 122.886719 228.066406 122.953125 227.996094 122.953125 227.914062 " fill-opacity="1" fill-rule="nonzero"/></g><g clip-path="url(#b755181b88)"><path fill="#ffffff" d="M 121.351562 227.914062 L 121.351562 225.03125 C 121.351562 224.949219 121.28125 224.882812 121.199219 224.882812 C 121.117188 224.882812 121.046875 224.949219 121.046875 225.03125 L 121.046875 227.914062 C 121.046875 227.996094 121.117188 228.066406 121.199219 228.066406 C 121.28125 228.066406 121.351562 227.996094 121.351562 227.914062 " fill-opacity="1" fill-rule="nonzero"/></g><g clip-path="url(#91bed59835)"><path fill="#ffffff" d="M 120.007812 219.183594 L 118.515625 221 C 118.492188 221.027344 118.480469 221.058594 118.480469 221.09375 L 118.480469 227.914062 C 118.480469 227.996094 118.550781 228.066406 118.632812 228.066406 C 118.714844 228.066406 118.785156 227.996094 118.785156 227.914062 L 118.785156 221.148438 L 120.238281 219.375 C 120.292969 219.308594 120.285156 219.214844 120.21875 219.160156 C 120.15625 219.109375 120.058594 219.117188 120.007812 219.183594 " fill-opacity="1" fill-rule="nonzero"/></g><g clip-path="url(#763bca16c7)"><path fill="#ffffff" d="M 110.683594 213.707031 L 113.140625 217.734375 L 113.140625 227.914062 C 113.140625 227.996094 113.207031 228.066406 113.292969 228.066406 C 113.375 228.066406 113.441406 227.996094 113.441406 227.914062 L 113.441406 217.695312 C 113.441406 217.664062 113.433594 217.640625 113.421875 217.613281 L 110.941406 213.550781 C 110.894531 213.480469 110.804688 213.457031 110.730469 213.5 C 110.660156 213.542969 110.636719 213.636719 110.683594 213.707031 " fill-opacity="1" fill-rule="nonzero"/></g><g clip-path="url(#6c5538aebf)"><path fill="#ffffff" d="M 112.203125 227.914062 L 112.203125 219.839844 C 112.203125 219.753906 112.132812 219.6875 112.050781 219.6875 C 111.96875 219.6875 111.898438 219.753906 111.898438 219.839844 L 111.898438 227.914062 C 111.898438 227.996094 111.96875 228.066406 112.050781 228.066406 C 112.132812 228.066406 112.203125 227.996094 112.203125 227.914062 " fill-opacity="1" fill-rule="nonzero"/></g><g clip-path="url(#e45044dde4)"><path fill="#ffffff" d="M 110.960938 227.914062 L 110.960938 222.222656 C 110.960938 222.183594 110.945312 222.144531 110.917969 222.117188 L 108.253906 219.472656 L 108.253906 216.988281 C 108.253906 216.90625 108.1875 216.835938 108.101562 216.835938 C 108.019531 216.835938 107.953125 216.90625 107.953125 216.988281 L 107.953125 219.535156 C 107.953125 219.574219 107.96875 219.613281 107.996094 219.640625 L 110.660156 222.289062 L 110.660156 227.914062 C 110.660156 227.996094 110.726562 228.066406 110.8125 228.066406 C 110.894531 228.066406 110.960938 227.996094 110.960938 227.914062 " fill-opacity="1" fill-rule="nonzero"/></g><g clip-path="url(#73629c85d2)"><path fill="#ffffff" d="M 121.296875 205.683594 L 121.148438 205.683594 C 121.148438 205.855469 121.078125 206.007812 120.964844 206.121094 C 120.851562 206.234375 120.695312 206.304688 120.523438 206.304688 C 120.351562 206.304688 120.195312 206.234375 120.082031 206.121094 C 119.96875 206.007812 119.902344 205.855469 119.902344 205.683594 C 119.902344 205.507812 119.96875 205.355469 120.082031 205.242188 C 120.195312 205.128906 120.351562 205.058594 120.523438 205.058594 C 120.695312 205.058594 120.851562 205.128906 120.964844 205.242188 C 121.078125 205.355469 121.148438 205.507812 121.148438 205.683594 L 121.449219 205.683594 C 121.449219 205.171875 121.035156 204.757812 120.523438 204.757812 C 120.011719 204.757812 119.597656 205.171875 119.597656 205.683594 C 119.597656 206.191406 120.011719 206.605469 120.523438 206.605469 C 121.035156 206.605469 121.449219 206.191406 121.449219 205.683594 L 121.296875 205.683594 " fill-opacity="1" fill-rule="nonzero"/></g><path fill="#ffffff" d="M 118.984375 206.457031 L 118.832031 206.457031 C 118.832031 206.628906 118.761719 206.785156 118.648438 206.898438 C 118.535156 207.011719 118.382812 207.078125 118.207031 207.078125 C 118.035156 207.078125 117.882812 207.011719 117.769531 206.898438 C 117.65625 206.785156 117.585938 206.628906 117.585938 206.457031 C 117.585938 206.285156 117.65625 206.128906 117.769531 206.015625 C 117.882812 205.902344 118.035156 205.832031 118.207031 205.832031 C 118.382812 205.832031 118.535156 205.902344 118.648438 206.015625 C 118.761719 206.128906 118.832031 206.285156 118.832031 206.457031 L 119.132812 206.457031 C 119.132812 205.945312 118.71875 205.53125 118.207031 205.53125 C 117.699219 205.53125 117.28125 205.945312 117.28125 206.457031 C 117.28125 206.96875 117.699219 207.382812 118.207031 207.382812 C 118.71875 207.382812 119.132812 206.96875 119.132812 206.457031 L 118.984375 206.457031 " fill-opacity="1" fill-rule="nonzero"/><path fill="#ffffff" d="M 115.476562 211.859375 L 115.324219 211.859375 C 115.324219 212.03125 115.257812 212.1875 115.144531 212.300781 C 115.03125 212.414062 114.875 212.484375 114.703125 212.484375 C 114.53125 212.484375 114.375 212.414062 114.261719 212.300781 C 114.148438 212.1875 114.078125 212.03125 114.078125 211.859375 C 114.078125 211.6875 114.148438 211.53125 114.261719 211.417969 C 114.375 211.304688 114.53125 211.238281 114.703125 211.238281 C 114.875 211.238281 115.03125 211.304688 115.144531 211.417969 C 115.257812 211.53125 115.324219 211.6875 115.324219 211.859375 L 115.628906 211.859375 C 115.628906 211.347656 115.214844 210.933594 114.703125 210.933594 C 114.191406 210.933594 113.777344 211.347656 113.777344 211.859375 C 113.777344 212.371094 114.191406 212.785156 114.703125 212.785156 C 115.214844 212.785156 115.628906 212.371094 115.628906 211.859375 L 115.476562 211.859375 " fill-opacity="1" fill-rule="nonzero"/><path fill="#ffffff" d="M 111.15625 212.976562 L 111.003906 212.976562 C 111.003906 213.148438 110.933594 213.300781 110.820312 213.417969 C 110.707031 213.527344 110.550781 213.597656 110.378906 213.597656 C 110.207031 213.597656 110.050781 213.527344 109.9375 213.417969 C 109.828125 213.300781 109.757812 213.148438 109.757812 212.976562 C 109.757812 212.804688 109.828125 212.648438 109.9375 212.535156 C 110.050781 212.421875 110.207031 212.351562 110.378906 212.351562 C 110.550781 212.351562 110.707031 212.421875 110.820312 212.535156 C 110.933594 212.648438 111.003906 212.804688 111.003906 212.976562 L 111.304688 212.976562 C 111.304688 212.464844 110.890625 212.050781 110.378906 212.050781 C 109.867188 212.050781 109.453125 212.464844 109.453125 212.976562 C 109.453125 213.484375 109.867188 213.902344 110.378906 213.902344 C 110.890625 213.902344 111.304688 213.484375 111.304688 212.976562 L 111.15625 212.976562 " fill-opacity="1" fill-rule="nonzero"/><g clip-path="url(#7d9e630fac)"><path fill="#ffffff" d="M 108.875 216.214844 L 108.726562 216.214844 C 108.726562 216.386719 108.65625 216.542969 108.542969 216.65625 C 108.429688 216.769531 108.273438 216.835938 108.101562 216.835938 C 107.929688 216.835938 107.773438 216.769531 107.660156 216.65625 C 107.550781 216.542969 107.480469 216.386719 107.480469 216.214844 C 107.480469 216.042969 107.550781 215.886719 107.660156 215.773438 C 107.773438 215.660156 107.929688 215.589844 108.101562 215.589844 C 108.273438 215.589844 108.429688 215.660156 108.542969 215.773438 C 108.65625 215.886719 108.726562 216.042969 108.726562 216.214844 L 109.027344 216.214844 C 109.027344 215.703125 108.613281 215.289062 108.101562 215.289062 C 107.589844 215.289062 107.175781 215.703125 107.175781 216.214844 C 107.175781 216.726562 107.589844 217.140625 108.101562 217.140625 C 108.613281 217.140625 109.027344 216.726562 109.027344 216.214844 L 108.875 216.214844 " fill-opacity="1" fill-rule="nonzero"/></g><g clip-path="url(#7e6609428b)"><path fill="#ffffff" d="M 125.683594 212.449219 L 125.53125 212.449219 C 125.53125 212.621094 125.460938 212.773438 125.347656 212.886719 C 125.234375 213 125.082031 213.070312 124.90625 213.070312 C 124.734375 213.070312 124.582031 213 124.46875 212.886719 C 124.355469 212.773438 124.285156 212.621094 124.285156 212.449219 C 124.285156 212.273438 124.355469 212.121094 124.46875 212.007812 C 124.582031 211.894531 124.734375 211.824219 124.90625 211.824219 C 125.082031 211.824219 125.234375 211.894531 125.347656 212.007812 C 125.460938 212.121094 125.53125 212.273438 125.53125 212.449219 L 125.832031 212.449219 C 125.832031 211.9375 125.417969 211.523438 124.90625 211.523438 C 124.398438 211.523438 123.984375 211.9375 123.984375 212.449219 C 123.984375 212.957031 124.398438 213.371094 124.90625 213.375 C 125.417969 213.371094 125.832031 212.957031 125.832031 212.449219 L 125.683594 212.449219 " fill-opacity="1" fill-rule="nonzero"/></g><path fill="#ffffff" d="M 121.972656 224.257812 L 121.820312 224.257812 C 121.820312 224.429688 121.753906 224.585938 121.640625 224.699219 C 121.527344 224.8125 121.371094 224.882812 121.199219 224.882812 C 121.027344 224.882812 120.871094 224.8125 120.757812 224.699219 C 120.644531 224.585938 120.574219 224.429688 120.574219 224.257812 C 120.574219 224.085938 120.644531 223.929688 120.757812 223.816406 C 120.871094 223.703125 121.027344 223.632812 121.199219 223.632812 C 121.371094 223.632812 121.527344 223.703125 121.640625 223.816406 C 121.753906 223.929688 121.820312 224.085938 121.820312 224.257812 L 122.125 224.257812 C 122.125 223.746094 121.710938 223.332031 121.199219 223.332031 C 120.6875 223.332031 120.273438 223.746094 120.273438 224.257812 C 120.273438 224.769531 120.6875 225.183594 121.199219 225.183594 C 121.710938 225.183594 122.125 224.769531 122.125 224.257812 L 121.972656 224.257812 " fill-opacity="1" fill-rule="nonzero"/><path fill="#ffffff" d="M 121.367188 218.660156 L 121.214844 218.660156 C 121.214844 218.835938 121.144531 218.988281 121.03125 219.101562 C 120.917969 219.214844 120.765625 219.285156 120.589844 219.285156 C 120.417969 219.285156 120.265625 219.214844 120.152344 219.101562 C 120.039062 218.988281 119.96875 218.835938 119.96875 218.660156 C 119.96875 218.488281 120.039062 218.335938 120.152344 218.222656 C 120.265625 218.109375 120.417969 218.039062 120.589844 218.039062 C 120.765625 218.039062 120.917969 218.109375 121.03125 218.222656 C 121.144531 218.335938 121.214844 218.488281 121.214844 218.660156 L 121.515625 218.660156 C 121.515625 218.152344 121.101562 217.738281 120.589844 217.738281 C 120.082031 217.738281 119.667969 218.152344 119.667969 218.660156 C 119.667969 219.171875 120.082031 219.585938 120.589844 219.585938 C 121.101562 219.585938 121.515625 219.171875 121.515625 218.660156 L 121.367188 218.660156 " fill-opacity="1" fill-rule="nonzero"/><path fill="#ffffff" d="M 112.824219 219.0625 L 112.675781 219.0625 C 112.675781 219.238281 112.605469 219.390625 112.492188 219.503906 C 112.378906 219.617188 112.222656 219.6875 112.050781 219.6875 C 111.878906 219.6875 111.722656 219.617188 111.609375 219.503906 C 111.496094 219.390625 111.429688 219.238281 111.429688 219.0625 C 111.429688 218.890625 111.496094 218.738281 111.609375 218.625 C 111.722656 218.511719 111.878906 218.441406 112.050781 218.441406 C 112.222656 218.441406 112.378906 218.511719 112.492188 218.625 C 112.605469 218.738281 112.675781 218.890625 112.675781 219.0625 L 112.976562 219.0625 C 112.976562 218.554688 112.5625 218.140625 112.050781 218.140625 C 111.539062 218.140625 111.125 218.554688 111.125 219.0625 C 111.125 219.574219 111.539062 219.988281 112.050781 219.988281 C 112.5625 219.988281 112.976562 219.574219 112.976562 219.0625 L 112.824219 219.0625 " fill-opacity="1" fill-rule="nonzero"/><path fill="#ffffff" d="M 123.785156 210.234375 L 123.636719 210.234375 C 123.636719 210.410156 123.566406 210.5625 123.453125 210.675781 C 123.339844 210.789062 123.183594 210.859375 123.011719 210.859375 C 122.839844 210.859375 122.683594 210.789062 122.570312 210.675781 C 122.457031 210.5625 122.390625 210.410156 122.390625 210.234375 C 122.390625 210.0625 122.457031 209.910156 122.570312 209.796875 C 122.683594 209.683594 122.839844 209.613281 123.011719 209.613281 C 123.183594 209.613281 123.339844 209.683594 123.453125 209.796875 C 123.566406 209.910156 123.636719 210.0625 123.636719 210.234375 L 123.9375 210.234375 C 123.9375 209.726562 123.523438 209.3125 123.011719 209.308594 C 122.5 209.3125 122.085938 209.726562 122.085938 210.234375 C 122.085938 210.746094 122.5 211.160156 123.011719 211.160156 C 123.523438 211.160156 123.9375 210.746094 123.9375 210.234375 L 123.785156 210.234375 " fill-opacity="1" fill-rule="nonzero"/><path fill="#ffffff" d="M 140.789062 194.449219 L 132.214844 194.449219 L 128.175781 191.441406 C 128.152344 191.421875 128.121094 191.414062 128.089844 191.414062 L 120.382812 191.414062 C 120.304688 191.414062 120.238281 191.476562 120.238281 191.554688 C 120.238281 191.636719 120.304688 191.699219 120.382812 191.699219 L 128.042969 191.699219 L 132.082031 194.710938 C 132.105469 194.726562 132.136719 194.738281 132.167969 194.738281 L 140.789062 194.738281 C 140.867188 194.738281 140.933594 194.675781 140.933594 194.59375 C 140.933594 194.515625 140.867188 194.449219 140.789062 194.449219 " fill-opacity="1" fill-rule="nonzero"/><path fill="#ffffff" d="M 140.789062 192.085938 L 136.546875 192.085938 L 132.507812 189.074219 C 132.484375 189.058594 132.453125 189.046875 132.421875 189.046875 L 124.714844 189.046875 C 124.632812 189.046875 124.570312 189.109375 124.570312 189.191406 C 124.570312 189.269531 124.632812 189.335938 124.714844 189.335938 L 132.375 189.335938 L 136.414062 192.34375 C 136.4375 192.363281 136.46875 192.371094 136.5 192.371094 L 140.789062 192.371094 C 140.867188 192.371094 140.933594 192.308594 140.933594 192.226562 C 140.933594 192.148438 140.867188 192.085938 140.789062 192.085938 " fill-opacity="1" fill-rule="nonzero"/><path fill="#ffffff" d="M 140.789062 195.746094 L 128.769531 195.746094 L 126.679688 193.65625 C 126.652344 193.628906 126.617188 193.613281 126.578125 193.613281 L 121.144531 193.613281 C 121.0625 193.613281 121 193.679688 121 193.757812 C 121 193.835938 121.0625 193.902344 121.144531 193.902344 L 126.519531 193.902344 L 128.605469 195.992188 C 128.632812 196.019531 128.671875 196.03125 128.710938 196.03125 L 140.789062 196.03125 C 140.867188 196.03125 140.933594 195.96875 140.933594 195.890625 C 140.933594 195.808594 140.867188 195.746094 140.789062 195.746094 " fill-opacity="1" fill-rule="nonzero"/><path fill="#ffffff" d="M 140.789062 196.949219 L 126.257812 196.949219 C 126.179688 196.949219 126.113281 197.011719 126.113281 197.09375 C 126.113281 197.171875 126.179688 197.238281 126.257812 197.238281 L 140.789062 197.238281 C 140.867188 197.238281 140.933594 197.171875 140.933594 197.09375 C 140.933594 197.011719 140.867188 196.949219 140.789062 196.949219 " fill-opacity="1" fill-rule="nonzero"/><path fill="#ffffff" d="M 140.789062 189.246094 L 135.675781 189.246094 L 132.832031 187.269531 C 132.808594 187.253906 132.78125 187.242188 132.75 187.242188 L 126.816406 187.242188 C 126.738281 187.242188 126.675781 187.308594 126.675781 187.386719 C 126.675781 187.46875 126.738281 187.53125 126.816406 187.53125 L 132.707031 187.53125 L 135.546875 189.507812 C 135.574219 189.523438 135.601562 189.535156 135.628906 189.535156 L 140.789062 189.535156 C 140.867188 189.535156 140.933594 189.46875 140.933594 189.390625 C 140.933594 189.3125 140.867188 189.246094 140.789062 189.246094 " fill-opacity="1" fill-rule="nonzero"/><path fill="#ffffff" d="M 140.789062 190.769531 L 138.050781 190.769531 C 137.96875 190.769531 137.90625 190.835938 137.90625 190.914062 C 137.90625 190.992188 137.96875 191.058594 138.050781 191.058594 L 140.789062 191.058594 C 140.867188 191.058594 140.933594 190.992188 140.933594 190.914062 C 140.933594 190.835938 140.867188 190.769531 140.789062 190.769531 " fill-opacity="1" fill-rule="nonzero"/><path fill="#ffffff" d="M 132.484375 192.046875 L 134.214844 193.464844 C 134.238281 193.488281 134.273438 193.5 134.304688 193.5 L 140.789062 193.5 C 140.867188 193.5 140.933594 193.433594 140.933594 193.355469 C 140.933594 193.273438 140.867188 193.210938 140.789062 193.210938 L 134.355469 193.210938 L 132.667969 191.828125 C 132.605469 191.777344 132.515625 191.785156 132.464844 191.847656 C 132.414062 191.90625 132.425781 192 132.484375 192.046875 " fill-opacity="1" fill-rule="nonzero"/><path fill="#ffffff" d="M 127.28125 200.917969 L 131.109375 198.578125 L 140.789062 198.578125 C 140.867188 198.578125 140.933594 198.515625 140.933594 198.433594 C 140.933594 198.355469 140.867188 198.289062 140.789062 198.289062 L 131.070312 198.289062 C 131.042969 198.289062 131.019531 198.296875 130.996094 198.3125 L 127.128906 200.671875 C 127.0625 200.710938 127.042969 200.800781 127.082031 200.867188 C 127.125 200.9375 127.210938 200.957031 127.28125 200.917969 " fill-opacity="1" fill-rule="nonzero"/><path fill="#ffffff" d="M 140.789062 199.46875 L 133.109375 199.46875 C 133.03125 199.46875 132.964844 199.535156 132.964844 199.613281 C 132.964844 199.695312 133.03125 199.757812 133.109375 199.757812 L 140.789062 199.757812 C 140.867188 199.757812 140.933594 199.695312 140.933594 199.613281 C 140.933594 199.535156 140.867188 199.46875 140.789062 199.46875 " fill-opacity="1" fill-rule="nonzero"/><path fill="#ffffff" d="M 140.789062 200.648438 L 135.378906 200.648438 C 135.339844 200.648438 135.304688 200.664062 135.277344 200.691406 L 132.761719 203.226562 L 130.398438 203.226562 C 130.320312 203.226562 130.253906 203.289062 130.253906 203.367188 C 130.253906 203.449219 130.320312 203.511719 130.398438 203.511719 L 132.820312 203.511719 C 132.859375 203.511719 132.894531 203.496094 132.921875 203.46875 L 135.4375 200.9375 L 140.789062 200.9375 C 140.867188 200.9375 140.933594 200.875 140.933594 200.792969 C 140.933594 200.714844 140.867188 200.648438 140.789062 200.648438 " fill-opacity="1" fill-rule="nonzero"/><g clip-path="url(#e35836eb0d)"><path fill="#ffffff" d="M 119.648438 190.820312 L 119.648438 190.964844 C 119.8125 190.964844 119.957031 191.03125 120.066406 191.136719 C 120.171875 191.246094 120.238281 191.390625 120.238281 191.554688 C 120.238281 191.71875 120.171875 191.867188 120.066406 191.976562 C 119.957031 192.082031 119.8125 192.148438 119.648438 192.148438 C 119.484375 192.148438 119.335938 192.082031 119.226562 191.976562 C 119.121094 191.867188 119.054688 191.71875 119.054688 191.554688 C 119.054688 191.390625 119.121094 191.246094 119.226562 191.136719 C 119.335938 191.03125 119.484375 190.964844 119.648438 190.964844 L 119.648438 190.675781 C 119.160156 190.675781 118.765625 191.070312 118.765625 191.554688 C 118.765625 192.042969 119.160156 192.4375 119.648438 192.4375 C 120.132812 192.4375 120.527344 192.042969 120.527344 191.554688 C 120.527344 191.070312 120.132812 190.675781 119.648438 190.675781 L 119.648438 190.820312 " fill-opacity="1" fill-rule="nonzero"/></g><path fill="#ffffff" d="M 120.382812 193.023438 L 120.382812 193.164062 C 120.546875 193.164062 120.695312 193.230469 120.800781 193.339844 C 120.910156 193.445312 120.976562 193.59375 120.976562 193.757812 C 120.976562 193.921875 120.910156 194.070312 120.800781 194.179688 C 120.695312 194.285156 120.546875 194.351562 120.382812 194.351562 C 120.21875 194.351562 120.070312 194.285156 119.964844 194.179688 C 119.855469 194.070312 119.789062 193.921875 119.789062 193.757812 C 119.789062 193.59375 119.855469 193.445312 119.964844 193.339844 C 120.070312 193.230469 120.21875 193.164062 120.382812 193.164062 L 120.382812 192.878906 C 119.898438 192.878906 119.503906 193.273438 119.503906 193.757812 C 119.503906 194.246094 119.898438 194.636719 120.382812 194.636719 C 120.867188 194.636719 121.261719 194.246094 121.261719 193.757812 C 121.261719 193.273438 120.867188 192.878906 120.382812 192.878906 L 120.382812 193.023438 " fill-opacity="1" fill-rule="nonzero"/><path fill="#ffffff" d="M 125.523438 196.355469 L 125.523438 196.5 C 125.6875 196.5 125.832031 196.566406 125.941406 196.675781 C 126.050781 196.78125 126.113281 196.929688 126.113281 197.09375 C 126.113281 197.257812 126.050781 197.40625 125.941406 197.511719 C 125.832031 197.621094 125.6875 197.683594 125.523438 197.6875 C 125.359375 197.683594 125.210938 197.621094 125.101562 197.511719 C 124.996094 197.40625 124.929688 197.257812 124.929688 197.09375 C 124.929688 196.929688 124.996094 196.78125 125.101562 196.675781 C 125.210938 196.566406 125.359375 196.5 125.523438 196.5 L 125.523438 196.214844 C 125.035156 196.214844 124.640625 196.605469 124.640625 197.09375 C 124.640625 197.578125 125.035156 197.972656 125.523438 197.972656 C 126.007812 197.972656 126.402344 197.578125 126.402344 197.09375 C 126.402344 196.605469 126.007812 196.214844 125.523438 196.214844 L 125.523438 196.355469 " fill-opacity="1" fill-rule="nonzero"/><path fill="#ffffff" d="M 126.582031 200.46875 L 126.582031 200.609375 C 126.746094 200.609375 126.894531 200.675781 127.003906 200.785156 C 127.109375 200.890625 127.175781 201.039062 127.175781 201.203125 C 127.175781 201.367188 127.109375 201.515625 127.003906 201.621094 C 126.894531 201.730469 126.746094 201.796875 126.582031 201.796875 C 126.417969 201.796875 126.273438 201.730469 126.164062 201.621094 C 126.054688 201.515625 125.992188 201.367188 125.992188 201.203125 C 125.992188 201.039062 126.054688 200.890625 126.164062 200.785156 C 126.273438 200.675781 126.417969 200.609375 126.582031 200.609375 L 126.582031 200.324219 C 126.097656 200.324219 125.703125 200.71875 125.703125 201.203125 C 125.703125 201.6875 126.097656 202.082031 126.582031 202.082031 C 127.070312 202.082031 127.460938 201.6875 127.460938 201.203125 C 127.460938 200.71875 127.070312 200.324219 126.582031 200.324219 L 126.582031 200.46875 " fill-opacity="1" fill-rule="nonzero"/><g clip-path="url(#834984d66f)"><path fill="#ffffff" d="M 129.664062 202.632812 L 129.664062 202.777344 C 129.828125 202.777344 129.972656 202.84375 130.082031 202.949219 C 130.191406 203.058594 130.253906 203.207031 130.253906 203.367188 C 130.253906 203.535156 130.191406 203.679688 130.082031 203.789062 C 129.972656 203.894531 129.828125 203.960938 129.664062 203.960938 C 129.5 203.960938 129.351562 203.894531 129.242188 203.789062 C 129.136719 203.679688 129.070312 203.535156 129.070312 203.367188 C 129.070312 203.207031 129.136719 203.058594 129.242188 202.949219 C 129.351562 202.84375 129.5 202.777344 129.664062 202.777344 L 129.664062 202.488281 C 129.175781 202.488281 128.78125 202.882812 128.78125 203.367188 C 128.78125 203.855469 129.175781 204.25 129.664062 204.25 C 130.148438 204.25 130.542969 203.855469 130.542969 203.367188 C 130.542969 202.882812 130.148438 202.488281 129.664062 202.488281 L 129.664062 202.632812 " fill-opacity="1" fill-rule="nonzero"/></g><g clip-path="url(#79bb975297)"><path fill="#ffffff" d="M 126.082031 186.652344 L 126.082031 186.792969 C 126.246094 186.792969 126.394531 186.859375 126.5 186.96875 C 126.609375 187.074219 126.675781 187.222656 126.675781 187.386719 C 126.675781 187.550781 126.609375 187.699219 126.5 187.808594 C 126.394531 187.914062 126.246094 187.980469 126.082031 187.980469 C 125.917969 187.980469 125.769531 187.914062 125.660156 187.808594 C 125.554688 187.699219 125.488281 187.550781 125.488281 187.386719 C 125.488281 187.222656 125.554688 187.074219 125.660156 186.96875 C 125.769531 186.859375 125.917969 186.792969 126.082031 186.792969 L 126.082031 186.507812 C 125.59375 186.507812 125.203125 186.902344 125.203125 187.386719 C 125.203125 187.875 125.59375 188.265625 126.082031 188.265625 C 126.566406 188.265625 126.960938 187.875 126.960938 187.386719 C 126.960938 186.902344 126.566406 186.507812 126.082031 186.507812 L 126.082031 186.652344 " fill-opacity="1" fill-rule="nonzero"/></g><path fill="#ffffff" d="M 137.3125 190.179688 L 137.3125 190.320312 C 137.476562 190.320312 137.625 190.386719 137.730469 190.496094 C 137.839844 190.601562 137.90625 190.75 137.90625 190.914062 C 137.90625 191.078125 137.839844 191.226562 137.730469 191.332031 C 137.625 191.441406 137.476562 191.507812 137.3125 191.507812 C 137.148438 191.507812 137 191.441406 136.894531 191.332031 C 136.785156 191.226562 136.71875 191.078125 136.71875 190.914062 C 136.71875 190.75 136.785156 190.601562 136.894531 190.496094 C 137 190.386719 137.148438 190.320312 137.3125 190.320312 L 137.3125 190.035156 C 136.828125 190.035156 136.433594 190.429688 136.433594 190.914062 C 136.433594 191.402344 136.828125 191.792969 137.3125 191.792969 C 137.796875 191.792969 138.191406 191.402344 138.191406 190.914062 C 138.191406 190.429688 137.796875 190.035156 137.3125 190.035156 L 137.3125 190.179688 " fill-opacity="1" fill-rule="nonzero"/><path fill="#ffffff" d="M 131.992188 190.757812 L 131.992188 190.898438 C 132.15625 190.898438 132.300781 190.964844 132.410156 191.074219 C 132.515625 191.179688 132.582031 191.328125 132.582031 191.492188 C 132.582031 191.65625 132.515625 191.804688 132.410156 191.910156 C 132.300781 192.019531 132.15625 192.085938 131.992188 192.085938 C 131.828125 192.085938 131.679688 192.019531 131.570312 191.910156 C 131.464844 191.804688 131.398438 191.65625 131.398438 191.492188 C 131.398438 191.328125 131.464844 191.179688 131.570312 191.074219 C 131.679688 190.964844 131.828125 190.898438 131.992188 190.898438 L 131.992188 190.613281 C 131.503906 190.613281 131.109375 191.007812 131.109375 191.492188 C 131.109375 191.976562 131.503906 192.371094 131.992188 192.371094 C 132.476562 192.371094 132.871094 191.976562 132.871094 191.492188 C 132.871094 191.007812 132.476562 190.613281 131.992188 190.613281 L 131.992188 190.757812 " fill-opacity="1" fill-rule="nonzero"/><path fill="#ffffff" d="M 132.375 198.878906 L 132.375 199.023438 C 132.539062 199.023438 132.683594 199.085938 132.792969 199.195312 C 132.898438 199.304688 132.964844 199.449219 132.964844 199.613281 C 132.964844 199.777344 132.898438 199.925781 132.792969 200.035156 C 132.683594 200.140625 132.539062 200.207031 132.375 200.207031 C 132.210938 200.207031 132.0625 200.140625 131.953125 200.035156 C 131.847656 199.925781 131.78125 199.777344 131.78125 199.613281 C 131.78125 199.449219 131.847656 199.304688 131.953125 199.195312 C 132.0625 199.085938 132.210938 199.023438 132.375 199.023438 L 132.375 198.734375 C 131.886719 198.734375 131.492188 199.128906 131.492188 199.613281 C 131.492188 200.101562 131.886719 200.492188 132.375 200.492188 C 132.859375 200.492188 133.253906 200.101562 133.253906 199.613281 C 133.253906 199.128906 132.859375 198.734375 132.375 198.734375 L 132.375 198.878906 " fill-opacity="1" fill-rule="nonzero"/><path fill="#ffffff" d="M 123.976562 188.453125 L 123.976562 188.597656 C 124.140625 188.597656 124.289062 188.664062 124.398438 188.769531 C 124.503906 188.878906 124.570312 189.027344 124.570312 189.191406 C 124.570312 189.355469 124.503906 189.503906 124.398438 189.609375 C 124.289062 189.71875 124.140625 189.78125 123.976562 189.78125 C 123.8125 189.78125 123.667969 189.71875 123.558594 189.609375 C 123.449219 189.503906 123.386719 189.355469 123.386719 189.191406 C 123.386719 189.027344 123.449219 188.878906 123.558594 188.769531 C 123.667969 188.664062 123.8125 188.597656 123.976562 188.597656 L 123.976562 188.3125 C 123.492188 188.3125 123.097656 188.703125 123.097656 189.191406 C 123.097656 189.675781 123.492188 190.070312 123.976562 190.070312 C 124.464844 190.070312 124.855469 189.675781 124.859375 189.191406 C 124.855469 188.703125 124.464844 188.3125 123.976562 188.3125 L 123.976562 188.453125 " fill-opacity="1" fill-rule="nonzero"/><path fill="#ffffff" d="M 111.980469 166.214844 L 111.980469 174.789062 L 108.96875 178.828125 C 108.953125 178.851562 108.941406 178.882812 108.941406 178.914062 L 108.941406 186.621094 C 108.941406 186.699219 109.007812 186.765625 109.085938 186.765625 C 109.164062 186.765625 109.230469 186.699219 109.230469 186.621094 L 109.230469 178.960938 L 112.238281 174.921875 C 112.257812 174.898438 112.265625 174.867188 112.265625 174.835938 L 112.265625 166.214844 C 112.265625 166.136719 112.203125 166.070312 112.125 166.070312 C 112.042969 166.070312 111.980469 166.136719 111.980469 166.214844 " fill-opacity="1" fill-rule="nonzero"/><path fill="#ffffff" d="M 109.613281 166.214844 L 109.613281 170.457031 L 106.605469 174.496094 C 106.585938 174.523438 106.574219 174.554688 106.574219 174.582031 L 106.574219 182.289062 C 106.574219 182.371094 106.640625 182.433594 106.71875 182.433594 C 106.800781 182.433594 106.863281 182.371094 106.863281 182.289062 L 106.863281 174.632812 L 109.875 170.59375 C 109.890625 170.566406 109.902344 170.539062 109.902344 170.507812 L 109.902344 166.214844 C 109.902344 166.136719 109.835938 166.070312 109.757812 166.070312 C 109.679688 166.070312 109.613281 166.136719 109.613281 166.214844 " fill-opacity="1" fill-rule="nonzero"/><path fill="#ffffff" d="M 113.273438 166.214844 L 113.273438 178.234375 L 111.1875 180.324219 C 111.160156 180.351562 111.144531 180.386719 111.144531 180.425781 L 111.144531 185.863281 C 111.144531 185.941406 111.207031 186.003906 111.289062 186.003906 C 111.367188 186.003906 111.429688 185.941406 111.429688 185.863281 L 111.429688 180.484375 L 113.519531 178.398438 C 113.546875 178.371094 113.5625 178.332031 113.5625 178.296875 L 113.5625 166.214844 C 113.5625 166.136719 113.496094 166.070312 113.417969 166.070312 C 113.339844 166.070312 113.273438 166.136719 113.273438 166.214844 " fill-opacity="1" fill-rule="nonzero"/><path fill="#ffffff" d="M 114.480469 166.214844 L 114.480469 180.746094 C 114.480469 180.824219 114.542969 180.890625 114.621094 180.890625 C 114.703125 180.890625 114.765625 180.824219 114.765625 180.746094 L 114.765625 166.214844 C 114.765625 166.136719 114.703125 166.070312 114.621094 166.070312 C 114.542969 166.070312 114.480469 166.136719 114.480469 166.214844 " fill-opacity="1" fill-rule="nonzero"/><path fill="#ffffff" d="M 106.777344 166.214844 L 106.777344 171.328125 L 104.800781 174.171875 C 104.78125 174.195312 104.773438 174.222656 104.773438 174.253906 L 104.773438 180.1875 C 104.773438 180.265625 104.835938 180.332031 104.917969 180.332031 C 104.996094 180.332031 105.058594 180.265625 105.058594 180.1875 L 105.058594 174.296875 L 107.035156 171.457031 C 107.054688 171.433594 107.0625 171.402344 107.0625 171.375 L 107.0625 166.214844 C 107.0625 166.136719 107 166.070312 106.917969 166.070312 C 106.839844 166.070312 106.777344 166.136719 106.777344 166.214844 " fill-opacity="1" fill-rule="nonzero"/><path fill="#ffffff" d="M 108.300781 166.214844 L 108.300781 168.957031 C 108.300781 169.035156 108.363281 169.097656 108.445312 169.097656 C 108.523438 169.097656 108.585938 169.035156 108.585938 168.957031 L 108.585938 166.214844 C 108.585938 166.136719 108.523438 166.070312 108.445312 166.070312 C 108.363281 166.070312 108.300781 166.136719 108.300781 166.214844 " fill-opacity="1" fill-rule="nonzero"/><path fill="#ffffff" d="M 109.578125 174.519531 L 110.996094 172.789062 C 111.015625 172.765625 111.027344 172.734375 111.027344 172.699219 L 111.027344 166.214844 C 111.027344 166.136719 110.964844 166.070312 110.882812 166.070312 C 110.804688 166.070312 110.738281 166.136719 110.738281 166.214844 L 110.738281 172.648438 L 109.355469 174.335938 C 109.304688 174.398438 109.316406 174.488281 109.375 174.539062 C 109.4375 174.589844 109.527344 174.582031 109.578125 174.519531 " fill-opacity="1" fill-rule="nonzero"/><path fill="#ffffff" d="M 118.445312 179.726562 L 116.105469 175.894531 L 116.105469 166.214844 C 116.105469 166.136719 116.042969 166.070312 115.964844 166.070312 C 115.882812 166.070312 115.820312 166.136719 115.820312 166.214844 L 115.820312 175.933594 C 115.820312 175.960938 115.828125 175.988281 115.839844 176.007812 L 118.199219 179.875 C 118.242188 179.941406 118.332031 179.964844 118.398438 179.921875 C 118.464844 179.878906 118.488281 179.792969 118.445312 179.726562 " fill-opacity="1" fill-rule="nonzero"/><path fill="#ffffff" d="M 117 166.214844 L 117 173.894531 C 117 173.972656 117.0625 174.039062 117.144531 174.039062 C 117.222656 174.039062 117.285156 173.972656 117.285156 173.894531 L 117.285156 166.214844 C 117.285156 166.136719 117.222656 166.070312 117.144531 166.070312 C 117.0625 166.070312 117 166.136719 117 166.214844 " fill-opacity="1" fill-rule="nonzero"/><g clip-path="url(#5ba5088400)"><path fill="#ffffff" d="M 118.179688 166.214844 L 118.179688 171.625 C 118.179688 171.664062 118.195312 171.699219 118.222656 171.726562 L 120.753906 174.242188 L 120.753906 176.605469 C 120.753906 176.683594 120.820312 176.75 120.898438 176.75 C 120.976562 176.75 121.042969 176.683594 121.042969 176.605469 L 121.042969 174.183594 C 121.042969 174.144531 121.027344 174.109375 121 174.082031 L 118.464844 171.566406 L 118.464844 166.214844 C 118.464844 166.136719 118.402344 166.070312 118.324219 166.070312 C 118.242188 166.070312 118.179688 166.136719 118.179688 166.214844 " fill-opacity="1" fill-rule="nonzero"/></g><g clip-path="url(#aa7a6725e6)"><path fill="#ffffff" d="M 108.347656 187.359375 L 108.492188 187.359375 C 108.492188 187.195312 108.558594 187.046875 108.667969 186.9375 C 108.773438 186.832031 108.921875 186.765625 109.085938 186.765625 C 109.25 186.765625 109.398438 186.832031 109.503906 186.9375 C 109.613281 187.046875 109.679688 187.195312 109.679688 187.359375 C 109.679688 187.523438 109.613281 187.667969 109.503906 187.777344 C 109.398438 187.882812 109.25 187.949219 109.085938 187.949219 C 108.921875 187.949219 108.773438 187.882812 108.667969 187.777344 C 108.558594 187.667969 108.492188 187.523438 108.492188 187.359375 L 108.207031 187.359375 C 108.207031 187.84375 108.597656 188.238281 109.085938 188.238281 C 109.570312 188.238281 109.964844 187.84375 109.964844 187.359375 C 109.964844 186.871094 109.570312 186.476562 109.085938 186.476562 C 108.597656 186.476562 108.207031 186.871094 108.207031 187.359375 L 108.347656 187.359375 " fill-opacity="1" fill-rule="nonzero"/></g><path fill="#ffffff" d="M 110.550781 186.621094 L 110.695312 186.621094 C 110.695312 186.457031 110.761719 186.308594 110.867188 186.203125 C 110.976562 186.09375 111.125 186.027344 111.289062 186.027344 C 111.453125 186.027344 111.597656 186.09375 111.707031 186.203125 C 111.816406 186.308594 111.878906 186.457031 111.878906 186.621094 C 111.878906 186.785156 111.816406 186.933594 111.707031 187.039062 C 111.597656 187.148438 111.453125 187.214844 111.289062 187.214844 C 111.125 187.214844 110.976562 187.148438 110.867188 187.039062 C 110.761719 186.933594 110.695312 186.785156 110.695312 186.621094 L 110.40625 186.621094 C 110.40625 187.109375 110.800781 187.5 111.289062 187.5 C 111.773438 187.5 112.167969 187.109375 112.167969 186.621094 C 112.167969 186.136719 111.773438 185.742188 111.289062 185.742188 C 110.800781 185.742188 110.40625 186.136719 110.40625 186.621094 L 110.550781 186.621094 " fill-opacity="1" fill-rule="nonzero"/><path fill="#ffffff" d="M 113.886719 181.480469 L 114.03125 181.480469 C 114.03125 181.316406 114.09375 181.171875 114.203125 181.0625 C 114.3125 180.957031 114.457031 180.890625 114.621094 180.890625 C 114.785156 180.890625 114.933594 180.957031 115.042969 181.0625 C 115.148438 181.171875 115.214844 181.316406 115.214844 181.480469 C 115.214844 181.648438 115.148438 181.792969 115.042969 181.902344 C 114.933594 182.007812 114.785156 182.074219 114.621094 182.074219 C 114.457031 182.074219 114.3125 182.007812 114.203125 181.902344 C 114.09375 181.792969 114.03125 181.648438 114.03125 181.480469 L 113.742188 181.480469 C 113.742188 181.96875 114.136719 182.363281 114.621094 182.363281 C 115.109375 182.363281 115.503906 181.96875 115.503906 181.480469 C 115.503906 180.996094 115.109375 180.601562 114.621094 180.601562 C 114.136719 180.601562 113.742188 180.996094 113.742188 181.480469 L 113.886719 181.480469 " fill-opacity="1" fill-rule="nonzero"/><path fill="#ffffff" d="M 117.996094 180.421875 L 118.140625 180.421875 C 118.140625 180.257812 118.207031 180.109375 118.3125 180.003906 C 118.421875 179.894531 118.570312 179.828125 118.734375 179.828125 C 118.898438 179.828125 119.042969 179.894531 119.152344 180.003906 C 119.257812 180.109375 119.324219 180.257812 119.324219 180.421875 C 119.324219 180.585938 119.257812 180.734375 119.152344 180.839844 C 119.042969 180.949219 118.898438 181.015625 118.734375 181.015625 C 118.570312 181.015625 118.421875 180.949219 118.3125 180.839844 C 118.207031 180.734375 118.140625 180.585938 118.140625 180.421875 L 117.851562 180.421875 C 117.851562 180.90625 118.246094 181.300781 118.734375 181.300781 C 119.21875 181.300781 119.613281 180.90625 119.613281 180.421875 C 119.613281 179.9375 119.21875 179.542969 118.734375 179.542969 C 118.246094 179.542969 117.851562 179.9375 117.851562 180.421875 L 117.996094 180.421875 " fill-opacity="1" fill-rule="nonzero"/><g clip-path="url(#e248ebcdbd)"><path fill="#ffffff" d="M 120.164062 177.34375 L 120.304688 177.34375 C 120.304688 177.175781 120.371094 177.03125 120.480469 176.921875 C 120.585938 176.816406 120.734375 176.75 120.898438 176.75 C 121.0625 176.75 121.210938 176.816406 121.316406 176.921875 C 121.425781 177.03125 121.492188 177.175781 121.492188 177.34375 C 121.492188 177.503906 121.425781 177.652344 121.316406 177.761719 C 121.210938 177.867188 121.0625 177.933594 120.898438 177.933594 C 120.734375 177.933594 120.585938 177.867188 120.480469 177.761719 C 120.371094 177.652344 120.304688 177.503906 120.304688 177.34375 L 120.019531 177.34375 C 120.019531 177.828125 120.414062 178.222656 120.898438 178.222656 C 121.382812 178.222656 121.777344 177.828125 121.777344 177.34375 C 121.777344 176.855469 121.382812 176.460938 120.898438 176.460938 C 120.414062 176.460938 120.019531 176.855469 120.019531 177.34375 L 120.164062 177.34375 " fill-opacity="1" fill-rule="nonzero"/></g><path fill="#ffffff" d="M 104.179688 180.921875 L 104.324219 180.921875 C 104.324219 180.757812 104.390625 180.613281 104.496094 180.503906 C 104.605469 180.398438 104.753906 180.332031 104.917969 180.332031 C 105.082031 180.332031 105.226562 180.398438 105.335938 180.503906 C 105.441406 180.613281 105.507812 180.757812 105.507812 180.921875 C 105.507812 181.085938 105.441406 181.234375 105.335938 181.34375 C 105.226562 181.449219 105.082031 181.515625 104.917969 181.515625 C 104.753906 181.515625 104.605469 181.449219 104.496094 181.34375 C 104.390625 181.234375 104.324219 181.085938 104.324219 180.921875 L 104.035156 180.921875 C 104.035156 181.410156 104.429688 181.804688 104.917969 181.804688 C 105.402344 181.804688 105.796875 181.410156 105.796875 180.921875 C 105.796875 180.4375 105.402344 180.042969 104.917969 180.042969 C 104.429688 180.042969 104.035156 180.4375 104.035156 180.921875 L 104.179688 180.921875 " fill-opacity="1" fill-rule="nonzero"/><path fill="#ffffff" d="M 107.707031 169.691406 L 107.851562 169.691406 C 107.851562 169.527344 107.917969 169.378906 108.023438 169.273438 C 108.132812 169.164062 108.28125 169.097656 108.445312 169.097656 C 108.609375 169.097656 108.753906 169.164062 108.863281 169.273438 C 108.96875 169.378906 109.035156 169.527344 109.035156 169.691406 C 109.035156 169.855469 108.96875 170.003906 108.863281 170.109375 C 108.753906 170.21875 108.609375 170.285156 108.445312 170.285156 C 108.28125 170.285156 108.132812 170.21875 108.023438 170.109375 C 107.917969 170.003906 107.851562 169.855469 107.851562 169.691406 L 107.5625 169.691406 C 107.5625 170.179688 107.957031 170.570312 108.445312 170.570312 C 108.929688 170.570312 109.324219 170.179688 109.324219 169.691406 C 109.324219 169.207031 108.929688 168.8125 108.445312 168.8125 C 107.957031 168.8125 107.5625 169.207031 107.5625 169.691406 L 107.707031 169.691406 " fill-opacity="1" fill-rule="nonzero"/><path fill="#ffffff" d="M 108.285156 175.015625 L 108.429688 175.015625 C 108.429688 174.851562 108.496094 174.703125 108.601562 174.59375 C 108.710938 174.488281 108.855469 174.421875 109.023438 174.421875 C 109.183594 174.421875 109.332031 174.488281 109.441406 174.59375 C 109.546875 174.703125 109.613281 174.851562 109.613281 175.015625 C 109.613281 175.179688 109.546875 175.324219 109.441406 175.433594 C 109.332031 175.539062 109.183594 175.605469 109.023438 175.605469 C 108.855469 175.605469 108.710938 175.539062 108.601562 175.433594 C 108.496094 175.324219 108.429688 175.179688 108.429688 175.015625 L 108.140625 175.015625 C 108.140625 175.5 108.535156 175.894531 109.023438 175.894531 C 109.507812 175.894531 109.902344 175.5 109.902344 175.015625 C 109.902344 174.527344 109.507812 174.132812 109.023438 174.132812 C 108.535156 174.132812 108.140625 174.527344 108.140625 175.015625 L 108.285156 175.015625 " fill-opacity="1" fill-rule="nonzero"/><path fill="#ffffff" d="M 116.40625 174.632812 L 116.550781 174.632812 C 116.550781 174.464844 116.617188 174.320312 116.722656 174.210938 C 116.832031 174.105469 116.980469 174.039062 117.144531 174.039062 C 117.308594 174.039062 117.453125 174.105469 117.5625 174.210938 C 117.671875 174.320312 117.734375 174.464844 117.734375 174.632812 C 117.734375 174.796875 117.671875 174.941406 117.5625 175.050781 C 117.453125 175.15625 117.308594 175.222656 117.144531 175.222656 C 116.980469 175.222656 116.832031 175.15625 116.722656 175.050781 C 116.617188 174.941406 116.550781 174.796875 116.550781 174.632812 L 116.261719 174.632812 C 116.261719 175.117188 116.65625 175.511719 117.144531 175.511719 C 117.628906 175.511719 118.023438 175.117188 118.023438 174.632812 C 118.023438 174.144531 117.628906 173.75 117.144531 173.75 C 116.65625 173.75 116.261719 174.144531 116.261719 174.632812 L 116.40625 174.632812 " fill-opacity="1" fill-rule="nonzero"/><path fill="#ffffff" d="M 105.984375 183.027344 L 106.128906 183.027344 C 106.128906 182.863281 106.191406 182.714844 106.300781 182.609375 C 106.410156 182.5 106.554688 182.433594 106.71875 182.433594 C 106.882812 182.433594 107.03125 182.5 107.140625 182.609375 C 107.246094 182.714844 107.3125 182.863281 107.3125 183.027344 C 107.3125 183.191406 107.246094 183.339844 107.140625 183.445312 C 107.03125 183.554688 106.882812 183.621094 106.71875 183.621094 C 106.554688 183.621094 106.410156 183.554688 106.300781 183.445312 C 106.191406 183.339844 106.128906 183.191406 106.128906 183.027344 L 105.839844 183.027344 C 105.839844 183.511719 106.234375 183.90625 106.71875 183.90625 C 107.207031 183.90625 107.597656 183.511719 107.597656 183.027344 C 107.597656 182.542969 107.207031 182.148438 106.71875 182.148438 C 106.234375 182.148438 105.839844 182.542969 105.839844 183.027344 L 105.984375 183.027344 " fill-opacity="1" fill-rule="nonzero"/><g fill="#ef3a5d" fill-opacity="1"><g transform="translate(165.74727, 203.604407)"><g><path d="M 16.765625 -9.90625 L 13.21875 -3.5625 L 9.65625 -3.5625 L 6.09375 -9.90625 L 6.09375 0 L 1.53125 0 L 1.53125 -17.78125 L 6.359375 -17.78125 L 11.4375 -8.390625 L 16.515625 -17.78125 L 21.34375 -17.78125 L 21.34375 0 L 16.765625 0 Z M 16.765625 -9.90625 "/></g></g></g><g fill="#ef3a5d" fill-opacity="1"><g transform="translate(190.533449, 203.604407)"><g><path d="M 6.484375 -10.546875 C 5.804688 -10.546875 5.46875 -10.207031 5.46875 -9.53125 L 5.46875 -8.125 L 9.78125 -8.125 L 9.78125 -9.53125 C 9.78125 -10.207031 9.441406 -10.546875 8.765625 -10.546875 Z M 13.71875 -0.25 C 10.445312 0.0820312 7.484375 0.25 4.828125 0.25 C 3.671875 0.25 2.742188 -0.09375 2.046875 -0.78125 C 1.359375 -1.476562 1.015625 -2.40625 1.015625 -3.5625 L 1.015625 -9.65625 C 1.015625 -10.925781 1.375 -11.921875 2.09375 -12.640625 C 2.8125 -13.359375 3.804688 -13.71875 5.078125 -13.71875 L 10.15625 -13.71875 C 11.425781 -13.71875 12.421875 -13.359375 13.140625 -12.640625 C 13.867188 -11.921875 14.234375 -10.925781 14.234375 -9.65625 L 14.234375 -4.953125 L 5.46875 -4.953125 L 5.46875 -3.9375 C 5.46875 -3.6875 5.550781 -3.472656 5.71875 -3.296875 C 5.882812 -3.128906 6.097656 -3.046875 6.359375 -3.046875 C 8.023438 -3.046875 10.476562 -3.175781 13.71875 -3.4375 Z M 13.71875 -0.25 "/></g></g></g><g fill="#ef3a5d" fill-opacity="1"><g transform="translate(207.701239, 203.604407)"><g><path d="M 10.796875 0 L 10.546875 -1.265625 C 9.742188 -0.742188 8.921875 -0.359375 8.078125 -0.109375 C 7.242188 0.128906 6.539062 0.25 5.96875 0.25 L 4.828125 0.25 C 3.671875 0.25 2.742188 -0.09375 2.046875 -0.78125 C 1.359375 -1.476562 1.015625 -2.40625 1.015625 -3.5625 L 1.015625 -9.40625 C 1.015625 -10.675781 1.375 -11.671875 2.09375 -12.390625 C 2.8125 -13.109375 3.804688 -13.46875 5.078125 -13.46875 L 10.296875 -13.46875 L 10.296875 -17.78125 L 14.734375 -17.78125 L 14.734375 0 Z M 7.234375 -3.4375 C 8.140625 -3.4375 9.160156 -3.601562 10.296875 -3.9375 L 10.296875 -10.03125 L 6.484375 -10.03125 C 5.804688 -10.03125 5.46875 -9.691406 5.46875 -9.015625 L 5.46875 -4.3125 C 5.46875 -4.0625 5.550781 -3.851562 5.71875 -3.6875 C 5.882812 -3.519531 6.097656 -3.4375 6.359375 -3.4375 Z M 7.234375 -3.4375 "/></g></g></g><g fill="#ef3a5d" fill-opacity="1"><g transform="translate(225.630873, 203.604407)"><g><path d="M 0.984375 -3.6875 C 5.628906 -3.425781 8.773438 -3.296875 10.421875 -3.296875 C 10.804688 -3.296875 11.113281 -3.410156 11.34375 -3.640625 C 11.570312 -3.867188 11.6875 -4.179688 11.6875 -4.578125 L 11.6875 -6.859375 L 5.84375 -6.859375 C 4.0625 -6.859375 2.769531 -7.257812 1.96875 -8.0625 C 1.164062 -8.863281 0.765625 -10.15625 0.765625 -11.9375 L 0.765625 -12.703125 C 0.765625 -14.484375 1.164062 -15.773438 1.96875 -16.578125 C 2.769531 -17.378906 4.0625 -17.78125 5.84375 -17.78125 L 14.765625 -17.78125 L 14.765625 -14.234375 L 6.859375 -14.234375 C 5.835938 -14.234375 5.328125 -13.722656 5.328125 -12.703125 L 5.328125 -12.1875 C 5.328125 -11.175781 5.835938 -10.671875 6.859375 -10.671875 L 11.4375 -10.671875 C 13.09375 -10.671875 14.3125 -10.28125 15.09375 -9.5 C 15.875 -8.71875 16.265625 -7.5 16.265625 -5.84375 L 16.265625 -4.578125 C 16.265625 -2.910156 15.875 -1.6875 15.09375 -0.90625 C 14.3125 -0.132812 13.09375 0.25 11.4375 0.25 C 10.570312 0.25 9.65625 0.234375 8.6875 0.203125 L 6.359375 0.109375 C 4.628906 0.015625 2.835938 -0.101562 0.984375 -0.25 Z M 0.984375 -3.6875 "/></g></g></g><g fill="#ef3a5d" fill-opacity="1"><g transform="translate(244.576285, 203.604407)"><g><path d="M 8.765625 -10.03125 C 7.867188 -10.03125 6.851562 -9.863281 5.71875 -9.53125 L 5.71875 -3.4375 L 9.53125 -3.4375 C 10.207031 -3.4375 10.546875 -3.773438 10.546875 -4.453125 L 10.546875 -9.140625 C 10.546875 -9.398438 10.457031 -9.613281 10.28125 -9.78125 C 10.113281 -9.945312 9.90625 -10.03125 9.65625 -10.03125 Z M 5.71875 0 L 5.71875 4.3125 L 1.265625 4.3125 L 1.265625 -13.46875 L 5.203125 -13.46875 L 5.46875 -12.1875 C 6.257812 -12.71875 7.070312 -13.101562 7.90625 -13.34375 C 8.75 -13.59375 9.457031 -13.71875 10.03125 -13.71875 L 11.171875 -13.71875 C 12.328125 -13.71875 13.25 -13.367188 13.9375 -12.671875 C 14.632812 -11.984375 14.984375 -11.0625 14.984375 -9.90625 L 14.984375 -4.0625 C 14.984375 -2.789062 14.625 -1.796875 13.90625 -1.078125 C 13.1875 -0.359375 12.191406 0 10.921875 0 Z M 5.71875 0 "/></g></g></g><g fill="#ef3a5d" fill-opacity="1"><g transform="translate(262.505915, 203.604407)"><g><path d="M 6.484375 -10.546875 C 5.804688 -10.546875 5.46875 -10.207031 5.46875 -9.53125 L 5.46875 -8.125 L 9.78125 -8.125 L 9.78125 -9.53125 C 9.78125 -10.207031 9.441406 -10.546875 8.765625 -10.546875 Z M 13.71875 -0.25 C 10.445312 0.0820312 7.484375 0.25 4.828125 0.25 C 3.671875 0.25 2.742188 -0.09375 2.046875 -0.78125 C 1.359375 -1.476562 1.015625 -2.40625 1.015625 -3.5625 L 1.015625 -9.65625 C 1.015625 -10.925781 1.375 -11.921875 2.09375 -12.640625 C 2.8125 -13.359375 3.804688 -13.71875 5.078125 -13.71875 L 10.15625 -13.71875 C 11.425781 -13.71875 12.421875 -13.359375 13.140625 -12.640625 C 13.867188 -11.921875 14.234375 -10.925781 14.234375 -9.65625 L 14.234375 -4.953125 L 5.46875 -4.953125 L 5.46875 -3.9375 C 5.46875 -3.6875 5.550781 -3.472656 5.71875 -3.296875 C 5.882812 -3.128906 6.097656 -3.046875 6.359375 -3.046875 C 8.023438 -3.046875 10.476562 -3.175781 13.71875 -3.4375 Z M 13.71875 -0.25 "/></g></g></g><g fill="#ef3a5d" fill-opacity="1"><g transform="translate(279.673699, 203.604407)"><g><path d="M 5.71875 -5.328125 L 5.71875 0 L 1.265625 0 L 1.265625 -17.78125 L 5.71875 -17.78125 L 5.71875 -8.765625 L 7.75 -8.765625 L 10.546875 -13.46875 L 15.25 -13.46875 L 11.4375 -6.984375 L 15.25 0 L 10.546875 0 L 7.625 -5.328125 Z M 5.71875 -5.328125 "/></g></g></g><g fill="#ef3a5d" fill-opacity="1"><g transform="translate(296.841484, 203.604407)"><g><path d="M 10.671875 0 C 9.023438 0.164062 7.414062 0.25 5.84375 0.25 C 4.6875 0.25 3.757812 -0.09375 3.0625 -0.78125 C 2.375 -1.476562 2.03125 -2.40625 2.03125 -3.5625 L 2.03125 -10.03125 L 0.515625 -10.03125 L 0.515625 -13.46875 L 2.03125 -13.46875 L 2.546875 -16.515625 L 6.484375 -16.515625 L 6.484375 -13.46875 L 9.65625 -13.46875 L 9.65625 -10.03125 L 6.484375 -10.03125 L 6.484375 -4.1875 C 6.484375 -3.9375 6.566406 -3.722656 6.734375 -3.546875 C 6.898438 -3.378906 7.113281 -3.296875 7.375 -3.296875 L 10.671875 -3.296875 Z M 10.671875 0 "/></g></g></g><g fill="#ef3a5d" fill-opacity="1"><g transform="translate(309.946135, 203.604407)"><g><path d="M 14.984375 -3.8125 C 14.984375 -2.539062 14.625 -1.546875 13.90625 -0.828125 C 13.1875 -0.109375 12.191406 0.25 10.921875 0.25 L 5.078125 0.25 C 3.804688 0.25 2.8125 -0.109375 2.09375 -0.828125 C 1.375 -1.546875 1.015625 -2.539062 1.015625 -3.8125 L 1.015625 -9.65625 C 1.015625 -10.925781 1.375 -11.921875 2.09375 -12.640625 C 2.8125 -13.359375 3.804688 -13.71875 5.078125 -13.71875 L 10.921875 -13.71875 C 12.191406 -13.71875 13.1875 -13.359375 13.90625 -12.640625 C 14.625 -11.921875 14.984375 -10.925781 14.984375 -9.65625 Z M 10.546875 -9.265625 C 10.546875 -9.953125 10.207031 -10.296875 9.53125 -10.296875 L 6.484375 -10.296875 C 5.804688 -10.296875 5.46875 -9.953125 5.46875 -9.265625 L 5.46875 -4.1875 C 5.46875 -3.507812 5.804688 -3.171875 6.484375 -3.171875 L 9.53125 -3.171875 C 10.207031 -3.171875 10.546875 -3.507812 10.546875 -4.1875 Z M 10.546875 -9.265625 "/></g></g></g></svg>